<?xml version="1.0" encoding="utf-8"?>
<svg version="1.1" xmlns:xlink="http://www.w3.org/1999/xlink" width="17px" height="11px" xmlns="http://www.w3.org/2000/svg">
  <g transform="matrix(1 0 0 1 -294 -18 )">
    <path d="M 17 1.03124996926636  C 17 0.461706309789231  16.5522842407227 0  16 0  C 16 0  15 0  15 0  C 14.447714805603 0  14 0.461706309789231  14 1.03124996926636  C 14 1.03124996926636  14 9.96875003073364  14 9.96875003073364  C 14 10.5382941204818  14.447714805603 11  15 11  C 15 11  16 11  16 11  C 16.5522842407227 11  17 10.5382941204818  17 9.96875003073364  C 17 9.96875003073364  17 1.03124996926636  17 1.03124996926636  Z M 9.33333301544189 3.43749981559814  C 9.33333301544189 2.8679562175883  9.78104782104492 2.40624984633178  10.3333330154419 2.40624984633178  C 10.3333330154419 2.40624984633178  11.3333330154419 2.40624984633178  11.3333330154419 2.40624984633178  C 11.8856182098389 2.40624984633178  12.3333330154419 2.8679562175883  12.3333330154419 3.43749981559814  C 12.3333330154419 3.43749981559814  12.3333330154419 9.96875003073364  12.3333330154419 9.96875003073364  C 12.3333330154419 10.5382931370052  11.8856182098389 10.9999990165234  11.3333330154419 10.9999990165234  C 11.3333330154419 10.9999990165234  10.3333330154419 10.9999990165234  10.3333330154419 10.9999990165234  C 9.78104782104492 10.9999990165234  9.33333301544189 10.5382931370052  9.33333301544189 9.96875003073364  C 9.33333301544189 9.96875003073364  9.33333301544189 3.43749981559814  9.33333301544189 3.43749981559814  Z M 7.66666650772095 5.84374966192992  C 7.66666650772095 5.27420606392008  7.21895122528076 4.81249969266356  6.66666650772095 4.81249969266356  C 6.66666650772095 4.81249969266356  5.66666650772095 4.81249969266356  5.66666650772095 4.81249969266356  C 5.11438179016113 4.81249969266356  4.66666650772095 5.27420606392008  4.66666650772095 5.84374966192992  C 4.66666650772095 5.84374966192992  4.66666650772095 9.96874904725703  4.66666650772095 9.96874904725703  C 4.66666650772095 10.5382931370052  5.11438179016113 10.9999990165234  5.66666650772095 10.9999990165234  C 5.66666650772095 10.9999990165234  6.66666650772095 10.9999990165234  6.66666650772095 10.9999990165234  C 7.21895122528076 10.9999990165234  7.66666650772095 10.5382931370052  7.66666650772095 9.96874904725703  C 7.66666650772095 9.96874904725703  7.66666650772095 5.84374966192992  7.66666650772095 5.84374966192992  Z M 3 7.90624960046263  C 3 7.33670600245279  2.55228471755981 6.87499963119627  2 6.87499963119627  C 2 6.87499963119627  1 6.87499963119627  1 6.87499963119627  C 0.447715222835541 6.87499963119627  0 7.33670600245279  0 7.90624960046263  C 0 7.90624960046263  0 9.96874904725703  0 9.96874904725703  C 0 10.5382931370052  0.447715222835541 10.9999990165234  1 10.9999990165234  C 1 10.9999990165234  2 10.9999990165234  2 10.9999990165234  C 2.55228471755981 10.9999990165234  3 10.5382931370052  3 9.96874904725703  C 3 9.96874904725703  3 7.90624960046263  3 7.90624960046263  Z " fill-rule="nonzero" fill="#000000" stroke="none" transform="matrix(1 0 0 1 294 18 )" />
  </g>
</svg>