<?xml version="1.0" encoding="utf-8"?>
<svg version="1.1" xmlns:xlink="http://www.w3.org/1999/xlink" width="15px" height="11px" xmlns="http://www.w3.org/2000/svg">
  <g transform="matrix(1 0 0 1 -316 -17 )">
    <path d="M 1.65292469730235 4.67027759736363  C 3.23043186170414 3.13858486640907  5.32382337427417 2.28447148327796  7.50041025968939 2.28447698412174  C 9.67678405359927 2.28457432513996  11.7699355455177 3.13868531659987  13.3472416779884 4.67027759736363  C 13.4660165413959 4.78852230029024  13.6558656176591 4.78703037578982  13.7728458290921 4.66693356267866  C 13.7728458290921 4.66693356267866  14.9082292161473 3.49660417476211  14.9082292161473 3.49660417476211  C 14.9674620979681 3.43569141823146  15.0004861296319 3.35318139234575  14.9999943800043 3.26733235428461  C 14.9995026303766 3.18148331622346  14.9655363127595 3.09937365609821  14.9056102981302 3.03917266091947  C 10.7656872658452 -1.01305739419507  4.23447902895075 -1.01305739419507  0.0945555283328339 3.03917266091947  C 0.034585881900582 3.09932917101371  0.000559834341997081 3.18141395775839  0 3.26726299581953  C -0.000546141419370574 3.35311203388068  0.0324195198949254 3.43564717231408  0.0916090260324135 3.49660417476211  C 0.0916090260324135 3.49660417476211  1.22731972661593 4.66693356267866  1.22731972661593 4.66693356267866  C 1.34422535602205 4.78721166446749  1.53422125467404 4.78870454563639  1.65292469730235 4.67027759736363  Z M 4.26744916573349 7.36571353205831  C 5.15323683342714 6.54648052101209  6.30542447609307 6.09256619884998  7.50041025968939 6.09206059955631  C 8.69618658935384 6.09198597941458  9.84928888632728 6.54593904665029  10.7356624385774 7.36571353205831  C 10.8555491244765 7.48205829137617  11.0444015881608 7.47953603491875  11.161268463013 7.36002948626207  C 11.161268463013 7.36002948626207  12.2953423910597 6.18969962001128  12.2953423910597 6.18969962001128  C 12.3550651491762 6.1283125950798  12.3882025174209 6.04503556023724  12.3873417214059 5.95849963420476  C 12.386479988725 5.87196418650652  12.3516912783973 5.78939269467073  12.2907583478636 5.72925842711873  C 9.59157274144704 3.16485019963062  5.41153979952976 3.16485019963062  2.71235395894668 5.72925842711873  C 2.65138332760822 5.78939221633649  2.61659672477888 5.87200484491708  2.61579657788468 5.95856851433559  C 2.61499643099048 6.0451321837541  2.64824971164738 6.12840108691455  2.70809774883577 6.18969962001128  C 2.70809774883577 6.18969962001128  3.84184407796383 7.36002948626207  3.84184407796383 7.36002948626207  C 3.95871048448297 7.47953603491875  4.14756294816734 7.48205829137617  4.26744916573349 7.36571353205831  Z M 9.67066856156271 8.42670145229233  C 9.73370056050715 8.4849175995344  9.77041786604141 8.56711838233273  9.77215350806067 8.65389682382585  C 9.77388915007993 8.74067622198744  9.74048764203524 8.82433975089744  9.67983571128883 8.8851360330402  C 9.67983571128883 8.8851360330402  7.71812374318943 10.9071314069393  7.71812374318943 10.9071314069393  C 7.66061760506129 10.9665558264763  7.58221585442013 11  7.50041072802237 11  C 7.41860513329162 11  7.34020338265046 10.9665558264763  7.28269724452233 10.9071314069393  C 7.28269724452233 10.9071314069393  5.32065791167078 8.8851360330402  5.32065791167078 8.8851360330402  C 5.26004719422649 8.8242947874787  5.22670422780415 8.74060351518268  5.22850122144363 8.65382507368956  C 5.23029868341608 8.56704663219645  5.26707687223758 8.48487072277869  5.33015242614904 8.42670145229233  C 6.58297452262351 7.34443004996592  8.41784599675526 7.34443004996592  9.67066856156271 8.42670145229233  Z " fill-rule="nonzero" fill="#000000" stroke="none" transform="matrix(1 0 0 1 316 17 )" />
  </g>
</svg>