<?xml version="1.0" encoding="utf-8"?>
<svg version="1.1" xmlns:xlink="http://www.w3.org/1999/xlink" width="11px" height="7px" xmlns="http://www.w3.org/2000/svg">
  <g transform="matrix(1 0 0 1 -36 -18 )">
    <path d="M 2.23760509657015 6.82190429509726  C 2.00674444397718 6.9425186900169  1.75580831343283 7  1.50688031400352 7  C 1.04716649678506 7  0.597488743367177 6.80305867983459  0.303392339454699 6.43838861768286  C -0.148291525893943 5.87583556540188  -0.0900734475086274 5.0861875626325  0.440906028028421 4.58771092213273  C 1.35531495750364 3.72927568648304  2.4795064842765 3.12526301077504  3.70909039645173 2.81807323358691  C 3.70909039645173 2.81807323358691  8.76192776888605 0.177748756865986  8.76192776888605 0.177748756865986  C 9.48964070626775 -0.200113502755509  10.405054262185 0.0439416028220604  10.8095622649969 0.725224432330965  C 11.2140702678087 1.40744954962368  10.9530960542795 2.26776851835923  10.2263869057523 2.64751538163109  C 10.2263869057523 2.64751538163109  8.91248676394111 3.33351032404449  8.91248676394111 3.33351032404449  C 9.51372816876993 3.63127711106355  10.0677969716707 4.01385128701047  10.5586267776001 4.47463593875129  C 11.1468195854251 5.0268237130794  11.1468195854251 5.9210665584995  10.5586267776001 6.47325433282761  C 9.97043396977514 7.02544210715572  9.01687691600872 7.02544210715572  8.42968789703825 6.47325433282761  C 7.67587770582115 5.76652939616298  6.64503423492273 5.39714706752935  5.53088065652244 5.41128156594671  C 5.28295640107686 5.41599306541917  5.03704172756762 5.44143612650998  4.79513992106749 5.48478192270966  C 4.79513992106749 5.48478192270966  2.23760509657015 6.82190429509726  2.23760509657015 6.82190429509726  Z " fill-rule="nonzero" fill="#000000" stroke="none" transform="matrix(1 0 0 1 36 18 )" />
  </g>
</svg>