<?xml version="1.0" encoding="utf-8"?>
<svg version="1.1" xmlns:xlink="http://www.w3.org/1999/xlink" width="33px" height="15px" xmlns="http://www.w3.org/2000/svg">
  <g transform="matrix(1 0 0 1 -15 -37 )">
    <path d="M 3.03662437448948 13.5479185833501  C 3.03662437448948 14.3504355759258  2.35743293477654 15  1.51831266990303 15  C 0.680204599800806 15  0 14.3504355759258  0 13.5479185833501  C 0 6.20425886544815  6.18357816004575 0  13.5038648643367 0  C 13.5038648643367 0  19.4961361009798 0  19.4961361009798 0  C 26.8154106708318 0  33 6.05905109306656  33 13.2313651594898  C 33 14.032914110251  32.3197963655158 14.6834465761397  31.4816882954136 14.6834465761397  C 30.64256803054 14.6834465761397  29.9633765908271 14.032914110251  29.9633765908271 13.2313651594898  C 29.9633765908271 7.63310727855121  25.1695608564242 2.90416283329981  19.4961361009798 2.90416283329981  C 19.4961361009798 2.90416283329981  13.5038648643367 2.90416283329981  13.5038648643367 2.90416283329981  C 7.92761225491051 2.90416283329981  3.03662437448948 7.87802480033462  3.03662437448948 13.5479185833501  Z " fill-rule="nonzero" fill="#000000" stroke="none" transform="matrix(1 0 0 1 15 37 )" />
  </g>
</svg>