<?xml version="1.0" encoding="utf-8"?>
<svg version="1.1" xmlns:xlink="http://www.w3.org/1999/xlink" width="30px" height="9px" xmlns="http://www.w3.org/2000/svg">
  <g transform="matrix(1 0 0 1 -18 -37 )">
    <path d="M 22.1090291710092 8.97092262013585  C 21.8894463378033 8.99030832841849  21.6698626055236 9  21.4512688861707 9  C 19.1110303147805 9  16.8706918740737 7.88241516632519  14.7816876612752 5.67244440043927  C 13.0942628769067 3.88702062030593  11.2347318988986 2.95650545642843  9.25354084551913 2.9080411839164  C 5.59976167134989 2.79754264417776  2.55230753331675 5.69279812329047  2.52263417852378 5.72187668571443  C 1.93806905575545 6.28309294934342  0.999402529581435 6.27339964203796  0.426706773049509 5.70249053329482  C -0.146978082596534 5.13061215159505  -0.142032587025944 4.21367121076047  0.440554278558484 3.65051640121821  C 0.597823056934629 3.49736929531385  4.3505136311461 -0.073481270550422  9.30101854628736 0.00115370760153791  C 12.1229545765974 0.0622186910389122  14.6995916683798 1.30581525001263  16.9587230512104 3.69704242751916  C 18.5818556267377 5.41461617630565  20.2287255198018 6.21039817088301  21.8310867191543 6.07566749669379  C 24.9181048493876 5.81105257087242  27.2435056978396 2.3206563992236  27.2662552704002 2.28479283763692  C 27.7103664913383 1.6111394666908  28.6262864203701 1.41243322426817  29.3156974052152 1.84570381106523  C 30.0041192319904 2.27800512490566  30.2068873507785 3.17362601820746  29.7687108129586 3.84921799284076  C 29.643093604185 4.04210579548877  26.65399790753 8.5686691723684  22.1090291710092 8.97092262013585  Z " fill-rule="nonzero" fill="#000000" stroke="none" transform="matrix(1 0 0 1 18 37 )" />
  </g>
</svg>