<?xml version="1.0" encoding="utf-8"?>
<svg version="1.1" xmlns:xlink="http://www.w3.org/1999/xlink" width="57px" height="61px" xmlns="http://www.w3.org/2000/svg">
  <g transform="matrix(1 0 0 1 -7 -4 )">
    <path d="M 57 32.8465420260963  C 57 26.4743630234156  54.8689539295064 20.5985083772223  51.2809855683765 15.881414610129  C 56.3631024202867 14.9417983849893  56.5180490238857 0  56.5180490238857 0  C 56.5180490238857 0  44.7721314522124 9.68034830641758  44.7721314522124 9.68034830641758  C 40.2031566903827 6.53728700646177  34.6632344845906 4.69207726552266  28.6886531764116 4.69207726552266  C 22.5088151281554 4.69207726552266  16.7968423500679 6.66637184919029  12.1423439065581 10.0065624562547  C 12.1423439065581 10.0065624562547  0 0  0 0  C 0 0  0.174065626111057 16.5408480694226  6.08022770108116 15.9004280865368  C 2.50030852039497 20.6145196253236  0.375298015853777 26.483368754035  0.375298015853777 32.8465420260963  C 0.375298015853777 48.3947388775065  13.0519123315233 61  28.6886531764116 61  C 44.3243874539416 61  57 48.3947388775065  57 32.8465420260963  Z " fill-rule="nonzero" fill="#e56a77" stroke="none" transform="matrix(1 0 0 1 7 4 )" />
  </g>
</svg>