<?xml version="1.0" encoding="utf-8"?>
<svg version="1.1" xmlns:xlink="http://www.w3.org/1999/xlink" width="36px" height="36px" xmlns="http://www.w3.org/2000/svg">
  <g transform="matrix(1 0 0 1 -74 -444 )">
    <path d="M 0 17.9999988720217  C 0 27.925221932861  8.07466369814976 36  17.9999278090911 36  C 27.9251919200325 36  36 27.925221932861  36 17.9999988720217  C 36 8.07477581118245  27.9251919200325 0  17.9999278090911 0  C 8.07466369814976 0  0 8.07477581118245  0 17.9999988720217  Z M 4.92448480005374 9.17061461155498  C 6.05654914577851 7.49980283879548  7.49983498549414 6.05652677532189  9.17050590286011 4.92476278303325  C 9.17050590286011 4.92476278303325  9.66313215297855 5.77813193510816  9.66313215297855 5.77813193510816  C 9.86849161866368 6.13385028604276  10.241211430503 6.33270358723414  10.6244308072698 6.33270358723414  C 10.8124921609101 6.33270358723414  11.0032164708008 6.28480128394792  11.1778237549199 6.18397006245365  C 11.7081508612024 5.87778021581233  11.8898541098184 5.19960907405892  11.583662996795 4.66928416116704  C 11.583662996795 4.66928416116704  11.089556833045 3.8134015914771  11.089556833045 3.8134015914771  C 12.8635727023865 2.94583908863365  14.8229918864186 2.40161638172107  16.8910754490249 2.2573183231174  C 16.8910754490249 2.2573183231174  16.8910754490249 4.68170320209222  16.8910754490249 4.68170320209222  C 16.8910754490249 5.29408289537488  17.3873977467789 5.79055097603334  17.9999278090911 5.79055097603334  C 18.6124578714034 5.79055097603334  19.1087801691573 5.29408289537488  19.1087801691573 4.68170320209222  C 19.1087801691573 4.68170320209222  19.1087801691573 2.25717055796198  19.1087801691573 2.25717055796198  C 21.1768637317637 2.40146861656565  23.1364261696306 2.94569104148366  24.9102942732055 3.8132535443271  C 24.9102942732055 3.8132535443271  24.4160392157059 4.66913639601162  24.4160392157059 4.66913639601162  C 24.1098481026825 5.1994613089035  24.2915558632303 5.8776324506569  24.8218829695129 6.18382229729823  C 24.996490253632 6.28465351879249  25.1872100515908 6.33255582207872  25.3752714052311 6.33255582207872  C 25.758490781998 6.33255582207872  26.1310672695036 6.13370252088734  26.3365745714542 5.77798416995274  C 26.3365745714542 5.77798416995274  26.8293452033904 4.92461501787783  26.8293452033904 4.92461501787783  C 28.5001638865229 6.05652684582053  29.9434487392535 7.49980283879548  31.0752174124472 9.17046684639956  C 31.0752174124472 9.17046684639956  30.2218441668994 9.66308993107677  30.2218441668994 9.66308993107677  C 29.6915170606168 9.96927977771809  29.5098138120008 10.6474514834606  29.8160049250242 11.1777763963525  C 30.0215122269749 11.5334947472871  30.3940842025486 11.7323480484785  30.7773035793155 11.7323480484785  C 30.9653649329558 11.7323480484785  31.1560892428465 11.684298464715  31.3306965269656 11.5836150876872  C 31.3306965269656 11.5836150876872  32.186582918528 11.0893643303437  32.186582918528 11.0893643303437  C 33.0541490095558 12.8632250973414  33.5983728393565 14.8226326524397  33.7426714947679 16.8908555677698  C 33.7426714947679 16.8908555677698  31.3182796906419 16.8908555677698  31.3182796906419 16.8908555677698  C 30.7057496283296 16.8908555677698  30.2094273305757 17.3873236484282  30.2094273305757 17.9997033417109  C 30.2094273305757 18.6120830349935  30.7057496283296 19.1085522436303  31.3182796906419 19.1085522436303  C 31.3182796906419 19.1085522436303  33.7426714947679 19.1085522436303  33.7426714947679 19.1085522436303  C 33.5983728393565 21.1766272528076  33.0542968458213 23.1360338209249  32.186582918528 24.910042353078  C 32.186582918528 24.910042353078  31.3306965269656 24.4157915957346  31.3306965269656 24.4157915957346  C 30.8005172569485 24.1094539134392  30.1220481665326 24.2911586312522  29.8160049250242 24.8216314150475  C 29.5098138120008 25.3519563279394  29.6915170606168 26.0301269057036  30.2218441668994 26.336316752345  C 30.2218441668994 26.336316752345  31.0750685186977 26.8289409650005  31.0750685186977 26.8289409650005  C 29.9432998455039 28.49975273776  28.5000195047052 29.9430281667458  26.8292008215726 31.0749399946885  C 26.8292008215726 31.0749399946885  26.3364256777047 30.221572534581  26.3364256777047 30.221572534581  C 26.0302345646813 29.6910997507857  25.3517655095149 29.5096907395301  24.8217340757634 29.8157327152681  C 24.2914069694808 30.1219225619094  24.1097037208648 30.8000953956302  24.4158948338882 31.3304203085221  C 24.4158948338882 31.3304203085221  24.910145379456 32.1863031602066  24.910145379456 32.1863031602066  C 23.1361295101145 33.0538656630501  21.1767148380141 33.5980872419844  19.1086312754078 33.742385300588  C 19.1086312754078 33.742385300588  19.1086312754078 31.3180012675969  19.1086312754078 31.3180012675969  C 19.1086312754078 30.7056215743143  18.6123089776539 30.2091534936558  17.9997789153416 30.2091534936558  C 17.3872488530293 30.2091534936558  16.8909265552754 30.7056215743143  16.8909265552754 31.3180012675969  C 16.8909265552754 31.3180012675969  16.8909265552754 33.742385300588  16.8909265552754 33.742385300588  C 14.8228429926691 33.5980872419844  12.8634238086369 33.0538656630501  11.0894079392955 32.1863031602066  C 11.0894079392955 32.1863031602066  11.5835141030455 31.3304203085221  11.5835141030455 31.3304203085221  C 11.8897052160689 30.8000953956302  11.7080019674529 30.1219225619094  11.1776748611704 29.8157327152681  C 10.6469042108418 29.5093950329727  9.96902650073745 29.6912476216891  9.66298325922903 30.221572534581  C 9.66298325922903 30.221572534581  9.17035700911059 31.0749399946885  9.17035700911059 31.0749399946885  C 7.49968609174462 29.9430281667458  6.05640130951301 28.4997538657382  4.92448480005374 26.8290898581342  C 4.92448480005374 26.8290898581342  5.77785804560159 26.3364656454787  5.77785804560159 26.3364656454787  C 6.30818515188416 26.0302757988374  6.48988840050012 25.3521029651165  6.18369728747673 24.8217780522246  C 5.87735833818784 24.2913052684294  5.19918495555246 24.1098985131304  4.6690056855354 24.4159404888683  C 4.6690056855354 24.4159404888683  3.81311929397291 24.9101912462117  3.81311929397291 24.9101912462117  C 2.94555320294519 23.1361827140586  2.40132937314447 21.1767738899848  2.25703071773304 19.1086988808074  C 2.25703071773304 19.1086988808074  4.68142703379086 19.1086988808074  4.68142703379086 19.1086988808074  C 5.29395709610315 19.1086988808074  5.79027939385705 18.6122308001489  5.79027939385705 17.9998511068663  C 5.79027939385705 17.3874714135836  5.29395709610315 16.8910033329252  4.68142703379086 16.8910033329252  C 4.68142703379086 16.8910033329252  2.25703071773304 16.8910033329252  2.25703071773304 16.8910033329252  C 2.40132937314447 14.8229283237478  2.94540536667968 12.8635206276522  3.81311929397291 11.0895120954992  C 3.81311929397291 11.0895120954992  4.6690056855354 11.5837628528426  4.6690056855354 11.5837628528426  C 4.8436129696545 11.6845940743368  5.03433727954513 11.7324958136339  5.22239863318546 11.7324958136339  C 5.60561800995232 11.7324958136339  5.9783378217916 11.5336425124425  6.18369728747673 11.1779241615079  C 6.48988840050012 10.6475992486161  6.30818515188416 9.9694286708518  5.77785804560159 9.66323882421047  C 5.77785804560159 9.66323882421047  4.92448480005374 9.17061461155498  4.92448480005374 9.17061461155498  Z " fill-rule="nonzero" fill="#000000" stroke="none" transform="matrix(1 0 0 1 74 444 )" />
  </g>
</svg>