<?xml version="1.0" encoding="utf-8"?>
<svg version="1.1" xmlns:xlink="http://www.w3.org/1999/xlink" width="75px" height="49px" xmlns="http://www.w3.org/2000/svg">
  <g transform="matrix(1 0 0 1 -35 -470 )">
    <path d="M 71.2574690580368 15.7134178331655  C 71.2574690580368 15.7134178331655  68.6340808868408 15.7134178331655  68.6340808868408 15.7134178331655  C 67.251121904701 15.7134178331655  66.0418961662799 16.4596034010059  65.3941422700882 17.5656311832873  C 64.4305680412799 16.8372608640225  63.4422353468835 16.1417760314279  62.4407216906548 15.4903278286372  C 61.9337392738089 15.1604751593631  61.2524403724819 15.2995452829551  60.9190419316292 15.8009155516844  C 60.5856434907764 16.3021409680779  60.7262703124434 16.9758970522904  61.2331062555313 17.3056048692286  C 62.4817390926182 18.1178507697016  63.7101558968425 19.0003552338145  64.8912593722343 19.9331270504571  C 64.8912593722343 19.9331270504571  64.8912593722343 27.8820419045474  64.8912593722343 27.8820419045474  L 52.3813471198082 36.1260405154943  C 52.3813471198082 36.1260405154943  24.7784189879894 23.8008206384646  24.7784189879894 23.8008206384646  C 24.8239756270777 20.5709589264395  25.1852052519098 17.5602750315798  25.8541993796825 14.842503420981  C 26.5166016994044 12.1490686606473  28.829004149884 10.1771932758658  31.6078126430511 9.9358517906615  C 32.6200196519494 9.84820977241443  33.8301266077906 9.7817190780607  35.1975582540035 9.77244785614765  C 35.1975582540035 9.77244785614765  43.5643047094345 21.4024715691149  43.5643047094345 21.4024715691149  C 43.7332011933904 21.6372942329381  43.9895508578047 21.7960644944005  44.2768067121506 21.8440140929892  C 44.3375977265532 21.8541544915181  44.3986830723588 21.8590759728898  44.4594740867615 21.8590759728898  C 44.6862318960484 21.8590759728898  44.9091799382586 21.7896900029682  45.0963869690895 21.6578648188542  C 45.0963869690895 21.6578648188542  55.6779786944389 14.2122033138608  55.6779786944389 14.2122033138608  C 56.303320499137 14.5061300134672  56.9307132158428 14.8171510156166  57.5595706701279 15.1488869034102  C 58.0949710565619 15.4313694395638  58.7605965323746 15.231023324061  59.0459480881691 14.7016945167496  C 59.331592626404 14.1723657094382  59.1290039126761 13.5141085316006  58.59375 13.2317708650519  C 47.5221678614616 7.39017691255777  36.8138680234551 7.30296955493256  31.4156256616116 7.77131110794132  C 31.1815436230972 7.79159190499918  30.950098548783 7.82114519863783  30.7214364409447 7.85953384797591  C 29.1805672924966 6.42626094569565  27.1311024203897 5.61300163147885  25.0019520521164 5.61300163147885  C 20.6928212195635 5.61300163147885  17.1360350679606 8.85937885838704  16.6993651539087 13.0092644144265  C 13.9924803748727 13.6802690640916  11.7303227540106 14.7218291986762  10.1084478199482 16.0177721395235  C 10.1084478199482 16.0177721395235  10.1084478199482 3.70110000091124  10.1084478199482 3.70110000091124  C 10.1084478199482 1.66027233113183  8.42958991415799 0  6.36591799557209 0  C 6.36591799557209 0  3.74252926558256 0  3.74252926558256 0  C 1.67885734699667 0  0 1.66012865308758  0 3.70095632286699  C 0 3.70095632286699  0 45.2988977886573  0 45.2988977886573  C 0 47.3397254584367  1.67885734699667 49  3.74252926558256 49  C 3.74252926558256 49  6.36591799557209 49  6.36591799557209 49  C 8.42958991415799 49  10.1084478199482 47.3397254584367  10.1084478199482 45.2988977886573  C 10.1084478199482 45.2988977886573  10.1084478199482 42.5485330900235  10.1084478199482 42.5485330900235  C 10.1084478199482 42.5485330900235  12.8818362951279 42.5485330900235  12.8818362951279 42.5485330900235  C 13.4885746054351 42.5485330900235  13.9804691076279 42.0620837171139  13.9804691076279 41.4620618236926  C 13.9804691076279 40.8620399302713  13.4885746054351 40.3755905573616  12.8818362951279 40.3755905573616  C 12.8818362951279 40.3755905573616  11 40.3755905573616  11 40.3755905573616  L 11 29  L 32.3147468268871 29  C 32.3147468268871 29  52.0319804549217 38.3540316329883  52.0319804549217 38.3540316329883  C 52.1762675663922 38.4184955937544  52.3303723486606 38.4503622355816  52.4838879704475 38.4503622355816  C 52.697462181095 38.4503622355816  52.9098650731612 38.3887951402103  53.0932635068893 38.2679795366376  C 53.0932635068893 38.2679795366376  64.8912593722343 30.4930477419811  64.8912593722343 30.4930477419811  L 64.8912593722343 40.3754446688859  C 64.8912593722343 40.3754446688859  17.6425784826279 40.3754446688859  17.6425784826279 40.3754446688859  C 17.0356936985627 40.3754446688859  16.5439456701279 40.8618940417956  16.5439456701279 41.4619159352169  C 16.5439456701279 42.0619378286382  17.0356936985627 42.5483872015478  17.6425784826279 42.5483872015478  C 17.6425784826279 42.5483872015478  64.891554415226 42.5483872015478  64.891554415226 42.5483872015478  C 64.891554415226 42.5483872015478  64.891554415226 45.2987519001816  64.891554415226 45.2987519001816  C 64.891554415226 47.339579569961  66.5704089682549 48.9998541115243  68.6340808868408 48.9998541115243  C 68.6340808868408 48.9998541115243  71.2574690580368 48.9998541115243  71.2574690580368 48.9998541115243  C 73.3211409766227 48.9998541115243  75 47.339579569961  75 45.2987519001816  C 75 45.2987519001816  75 19.4145156236453  75 19.4145156236453  C 75 17.3736879538659  73.3211409766227 15.7134178331655  71.2574690580368 15.7134178331655  Z M 53.3371567726135 13.1925136024989  C 53.3371567726135 13.1925136024989  44.717726111412 19.2573406849577  44.717726111412 19.2573406849577  C 44.717726111412 19.2573406849577  37.9369631409645 9.83213171573058  37.9369631409645 9.83213171573058  C 42.2626468352973 10.0488465251149  47.6531233638525 10.8993349274153  53.3371567726135 13.1925136024989  Z M 18.9996086061001 12.5462807054867  C 19.6122062858194 9.82604639794858  22.0699206925929 7.78579827566498  25.0019520521164 7.78579827566498  C 26.144383661449 7.78579827566498  27.2553216665983 8.10435204827826  28.2136224210262 8.68438286874124  C 26.6746576409787 9.46519353280312  25.3958485554904 10.6889933099713  24.5542958378792 12.2039688702683  C 24.2623524740338 12.1958565512293  23.9687991561368 12.1910776340516  23.6749514937401 12.1910776340516  C 22.0721194054931 12.1910776340516  20.5056144855917 12.3102991538998  18.9996086061001 12.5462807054867  Z M 17.9847657680511 14.9434715087566  C 19.7815430816263 14.559005536956  21.6959465760738 14.3640201667134  23.6748039722443 14.3640201667134  C 23.686815691326 14.3640201667134  23.6986824449559 14.3644534112777  23.7106941640377 14.3644534112777  C 23.0346688069403 17.1235109078928  22.6587879733415 20.1557818762936  22.589061409235 23.3924522697928  C 17.090624012053 23.1803730805391  12.1801761444658 21.3774077632067  10.3142581880093 18.8882295788388  C 11.6126957349479 17.1568290174434  14.4136232323945 15.7055949090358  17.9847657680511 14.9434715087566  Z M 10.1084478199482 21.7588329066298  C 10.8780767535791 22.3744999575507  11.787157994695 22.9296149328606  12.8116697072983 23.4136016779069  C 12.8116697072983 23.4136016779069  10.1084478199482 23.4136016779069  10.1084478199482 23.4136016779069  C 10.1084478199482 23.4136016779069  10.1084478199482 21.7588329066298  10.1084478199482 21.7588329066298  Z M 7.91118163615465 3.70095632286699  C 7.91118163615465 3.70095632286699  7.91118163615465 45.299043677133  7.91118163615465 45.299043677133  C 7.91118163615465 46.1417107785893  7.21801759209484 46.8272033558139  6.36591799557209 46.8272033558139  C 6.36591799557209 46.8272033558139  3.74252926558256 46.8272033558139  3.74252926558256 46.8272033558139  C 2.89057614281774 46.8272033558139  2.197265625 46.1417107785893  2.197265625 45.299043677133  C 2.197265625 45.299043677133  2.197265625 3.70095632286699  2.197265625 3.70095632286699  C 2.197265625 2.85843407374667  2.89042966905981 2.17279885461758  3.74252926558256 2.17279885461758  C 3.74252926558256 2.17279885461758  6.36591799557209 2.17279885461758  6.36591799557209 2.17279885461758  C 7.21787111833692 2.17279885461758  7.91118163615465 2.85828922141071  7.91118163615465 3.70095632286699  Z M 27.4482429027557 27  L 10.1088870316744 27  L 10.1088870316744 25  L 23.4383784234524 25  L 27.4482429027557 27  Z M 72.802734375 19.4145156236453  C 72.802734375 19.4145156236453  72.802734375 45.299043677133  72.802734375 45.299043677133  C 72.802734375 46.1417107785893  72.1095686545596 46.8272033558139  71.2574690580368 46.8272033558139  C 71.2574690580368 46.8272033558139  68.6340808868408 46.8272033558139  68.6340808868408 46.8272033558139  C 67.782127764076 46.8272033558139  67.088820040226 46.1417107785893  67.088820040226 45.299043677133  C 67.088820040226 45.299043677133  67.088820040226 19.4145156236453  67.088820040226 19.4145156236453  C 67.088820040226 18.571848522189  67.7819812903181 17.8863603658273  68.6340808868408 17.8863603658273  C 68.6340808868408 17.8863603658273  71.2574690580368 17.8863603658273  71.2574690580368 17.8863603658273  C 72.1094221808016 17.8863603658273  72.802734375 18.571848522189  72.802734375 19.4145156236453  Z " fill-rule="nonzero" fill="#000000" stroke="none" transform="matrix(1 0 0 1 35 470 )" />
  </g>
</svg>