<?xml version="1.0" encoding="utf-8"?>
<svg version="1.1" xmlns:xlink="http://www.w3.org/1999/xlink" width="47px" height="28px" xmlns="http://www.w3.org/2000/svg">
  <g transform="matrix(1 0 0 1 -50 -340 )">
    <path d="M 1.175 28  C 1.175 28  45.825 28  45.825 28  C 46.1366293869913 28  46.4354961249977 27.8770845706264  46.6558513641357 27.6582921346029  C 46.8762066032738 27.4394996985793  47 27.1427525828282  47 26.8333333333333  C 47 26.8333333333333  47 1.16666666666667  47 1.16666666666667  C 47 0.857247417171796  46.8762066032738 0.560501414040725  46.6558513641357 0.341708978017171  C 46.4354961249977 0.122916541993618  46.1366293869913 0  45.825 0  C 45.825 0  1.175 0  1.175 0  C 0.863370613008738 0  0.564504995569587 0.122916541993618  0.34414975643158 0.341708978017171  C 0.123794517293572 0.560501414040725  0 0.857247417171796  0 1.16666666666667  C 0 1.16666666666667  0 26.8333333333333  0 26.8333333333333  C 0 27.1427525828282  0.123794517293572 27.4394996985793  0.34414975643158 27.6582921346029  C 0.564504995569587 27.8770845706264  0.863370613008738 28  1.175 28  Z M 3 25.6666666666667  L 3 2.33333333333333  L 44 2.33333333333333  L 44 25.6666666666667  L 3 25.6666666666667  Z " fill-rule="nonzero" fill="#000000" stroke="none" transform="matrix(1 0 0 1 50 340 )" />
  </g>
</svg>