<?xml version="1.0" encoding="utf-8"?>
<svg version="1.1" xmlns:xlink="http://www.w3.org/1999/xlink" width="14px" height="12px" xmlns="http://www.w3.org/2000/svg">
  <g transform="matrix(1 0 0 1 -81 -453 )">
    <path d="M 3.17687404625693 12  L 10.8232666210335 12  C 12.574978256228 11.999852345855  14 10.5391088241255  14 8.74348681460331  C 14 8.74348681460331  14 3.25636448585585  14 3.25636448585585  C 14 1.46074247633363  12.5748366273447 0  10.8231259537431 0  C 9.0715593816919 0  7.6463925747766 1.46089019017676  7.6463925747766 3.25636448585585  C 7.6463925747766 3.25636448585585  7.6463925747766 5.4872710282883  7.6463925747766 5.4872710282883  C 7.6463925747766 5.4872710282883  3.17687404625693 5.4872710282883  3.17687404625693 5.4872710282883  C 1.42516337265528 5.4872710282883  0 6.94816009195339  0 8.74363438763248  C 0 10.5392563971547  1.42516337265528 12  3.17687404625693 12  Z M 9.80704215622861 8.74363438763248  C 9.80704215622861 8.74363438763248  9.80704215622861 3.25636448585585  9.80704215622861 3.25636448585585  C 9.80704215622861 2.68198987350494  10.2627974805091 2.21481207015952  10.8231259537431 2.21481207015952  C 11.383454426977 2.21481207015952  11.839350418548 2.68213755214458  11.839350418548 3.25636448585585  C 11.839350418548 3.25636448585585  11.839350418548 8.74363438763248  11.839350418548 8.74363438763248  C 11.839350418548 9.31800899998338  11.383454426977 9.78533437635797  10.8231259537431 9.78533437635797  C 10.2627974805091 9.78533437635797  9.80704215622861 9.31800899998338  9.80704215622861 8.74363438763248  Z M 3.17687404625693 7.70193439890698  L 7.6463925747766 7.70193439890698  C 7.6463925747766 7.70193439890698  7.6463925747766 8.74348681460331  7.6463925747766 8.74348681460331  C 7.6463925747766 9.10774957420206  7.70588267277468 9.45783870474439  7.81405919329821 9.78518792984048  C 7.81405919329821 9.78518792984048  3.17687404625693 9.78518792984048  3.17687404625693 9.78518792984048  C 2.61654557302297 9.78518792984048  2.16064958145201 9.31786142695421  2.16064958145201 8.74348681460331  C 2.16064958145201 8.16925988089204  2.61654557302297 7.70193439890698  3.17687404625693 7.70193439890698  Z " fill-rule="nonzero" fill="#000000" stroke="none" transform="matrix(1 0 0 1 81 453 )" />
  </g>
</svg>