<?xml version="1.0" encoding="utf-8"?>
<svg version="1.1" xmlns:xlink="http://www.w3.org/1999/xlink" width="6px" height="48px" xmlns="http://www.w3.org/2000/svg">
  <g transform="matrix(1 0 0 1 -36 -470 )">
    <path d="M 3.57254292724759 45.3197233903712  C 3.57254292724759 46.6739693130529  4.63026521966051 47.7950822870029  6 47.9732725493039  C 5.87207488106595 47.9910915744277  5.74258970118006 48  5.60998439009178 48  C 5.60998439009178 48  2.815912584514 48  2.815912584514 48  C 1.26053029054187 48  0 46.8001874671458  0 45.3197233903712  C 0 45.3197233903712  0 2.67879477233179  0 2.67879477233179  C 0 1.1998156483378  1.26053029054187 0  2.815912584514 0  C 2.815912584514 0  5.60998439009178 0  5.60998439009178 0  C 5.74258970118006 0  5.87207488106595 0.00891069137856468  6 0.0267297165023202  C 4.63026521966051 0.204919978803382  3.57254292724759 1.32454884965016  3.57254292724759 2.67879477233179  C 3.57254292724759 2.67879477233179  3.57254292724759 45.3197233903712  3.57254292724759 45.3197233903712  Z " fill-rule="nonzero" fill="#8b5e5e" stroke="none" transform="matrix(1 0 0 1 36 470 )" />
  </g>
</svg>