<?xml version="1.0" encoding="utf-8"?>
<svg version="1.1" xmlns:xlink="http://www.w3.org/1999/xlink" width="71px" height="54px" xmlns="http://www.w3.org/2000/svg">
  <g transform="matrix(1 0 0 1 -38 -457 )">
    <path d="M 60.3500345325668 15.61935225777  C 60.3500345325668 15.61935225777  60.3500345325668 1.17391304347826  60.3500345325668 1.17391304347826  C 60.3500345325668 0.862571935290876  60.2253630971503 0.563982789283213  60.0034449279152 0.3438313940297  C 59.7815267586802 0.123679998776187  59.4805402261925 0  59.1667005221243 0  C 59.1667005221243 0  35.5000203132746 0  35.5000203132746 0  C 35.1861806092064 0  34.8851940767187 0.123679998776187  34.6632759074836 0.3438313940297  C 34.4413577382486 0.563982789283213  34.3166863028321 0.862571935290876  34.3166863028321 1.17391304347826  C 34.3166863028321 1.17391304347826  34.3166863028321 15.61935225777  34.3166863028321 15.61935225777  C 31.0451329966352 17.7563919813737  28.3594981800228 20.6656697211058  26.5007115368146 24.086190679799  C 24.6419248936064 27.5067116384921  23.6681275988169 31.3314867434294  23.6666802088497 35.2173913043478  C 23.6666802088497 35.2173913043478  16.5666761461948 35.2173913043478  16.5666761461948 35.2173913043478  C 16.5666761461948 35.2173913043478  16.5666761461948 27  16.5666761461948 27  C 16.5666761461948 26.6886588918126  16.4420035822631 26.3900686262742  16.220085413028 26.1699172310207  C 15.9981672437929 25.9497658357672  15.6971818398205 25.8260869565217  15.3833421357523 25.8260869565217  C 15.3833421357523 25.8260869565217  10.6500060939824 25.8260869565217  10.6500060939824 25.8260869565217  C 10.3361663899142 25.8260869565217  10.0351809859417 25.9497658357672  9.81326281670668 26.1699172310207  C 9.59134464747163 26.3900686262742  9.46667208353989 26.6886588918126  9.46667208353989 27  C 9.46667208353989 27  9.46667208353989 30.5217391304348  9.46667208353989 30.5217391304348  C 9.46667208353989 30.5217391304348  5.91667005221243 30.5217391304348  5.91667005221243 30.5217391304348  C 5.60283034814425 30.5217391304348  5.3018449441718 30.6454180096803  5.07992677493674 30.8655694049338  C 4.85800860570168 31.0857208001873  4.73333604176994 31.3843110657257  4.73333604176994 31.695652173913  C 4.73333604176994 31.695652173913  4.73333604176994 35.2173913043478  4.73333604176994 35.2173913043478  C 4.73333604176994 35.2173913043478  1.18333401044249 35.2173913043478  1.18333401044249 35.2173913043478  C 0.869494306374312 35.2173913043478  0.568508620273039 35.3410701835933  0.346590451037983 35.5612215788468  C 0.124672281802927 35.7813729741003  0 36.0799632396387  0 36.3913043478261  C 0 36.3913043478261  0 43.4347826086957  0 43.4347826086957  C 0 43.746123716883  0.124672281802927 44.0447139824214  0.346590451037983 44.2648653776749  C 0.568508620273039 44.4850167729284  0.869494306374312 44.6086956521739  1.18333401044249 44.6086956521739  C 1.18333401044249 44.6086956521739  4.73333604176994 44.6086956521739  4.73333604176994 44.6086956521739  C 4.73333604176994 44.6086956521739  4.73333604176994 48.1304347826087  4.73333604176994 48.1304347826087  C 4.73333604176994 48.4417758907961  4.85800860570168 48.7403661563345  5.07992677493674 48.960517551588  C 5.3018449441718 49.1806689468415  5.60283034814425 49.304347826087  5.91667005221243 49.304347826087  C 5.91667005221243 49.304347826087  9.46667208353989 49.304347826087  9.46667208353989 49.304347826087  C 9.46667208353989 49.304347826087  9.46667208353989 52.8260869565217  9.46667208353989 52.8260869565217  C 9.46667208353989 53.1374280647091  9.59134464747163 53.4360183302475  9.81326281670668 53.656169725501  C 10.0351809859417 53.8763211207545  10.3361663899142 54  10.6500060939824 54  C 10.6500060939824 54  15.3833421357523 54  15.3833421357523 54  C 15.6971818398205 54  15.9981672437929 53.8763211207545  16.220085413028 53.656169725501  C 16.4420035822631 53.4360183302475  16.5666761461948 53.1374280647091  16.5666761461948 52.8260869565217  C 16.5666761461948 52.8260869565217  16.5666761461948 44.6086956521739  16.5666761461948 44.6086956521739  C 16.5666761461948 44.6086956521739  25.6361921136048 44.6086956521739  25.6361921136048 44.6086956521739  C 27.2207523715033 48.2011532990829  29.6846556647238 51.3441285983376  32.8042366179231 53.7523060674253  C 33.0120355977938 53.9128305918497  33.2678786635877 53.9999952456656  33.5312487145258 54  C 33.5312487145258 54  61.1354721208731 54  61.1354721208731 54  C 61.3988421718112 53.9999952456656  61.6546852376051 53.9128305918497  61.8624842174758 53.7523060674253  C 64.8315624266664 51.4624124765396  67.2075785036536 48.5033252757529  68.7935044060732 45.1204331439474  C 70.3794303084928 41.737541012142  71.1295649420514 38.0283207893372  70.9817045107104 34.3003568234651  C 70.8338440793695 30.572392857593  69.7922507031127 26.9331071998762  67.9432945562777 23.684290346892  C 66.0943384094426 20.4354734939078  63.4912987778466 17.6707378055738  60.3500345325668 15.61935225777  Z M 4.73333604176994 42.2608695652174  L 2.36666802088497 42.2608695652174  L 2.36666802088497 37.5652173913043  L 4.73333604176994 37.5652173913043  L 4.73333604176994 42.2608695652174  Z M 10 46.9565217391304  L 8 46.9565217391304  L 8 32.8695652173913  L 10 32.8695652173913  L 10 46.9565217391304  Z M 15 28.1739130434783  L 15 51.6521739130435  L 12 51.6521739130435  L 12 28.1739130434783  L 15 28.1739130434783  Z M 36.683354323717 14.2546801359757  C 36.683354323717 14.2546801359757  36.683354323717 3  36.683354323717 3  L 57.9833665116818 3  C 57.9833665116818 3  57.9833665116818 14.2546801359757  57.9833665116818 14.2546801359757  C 57.2140812211343 13.8685453845107  56.4240024727836 13.524607460136  55.6166984907968 13.2244230353314  C 55.6166984907968 13.2244230353314  55.6166984907968 5.8695652173913  55.6166984907968 5.8695652173913  C 55.6166984907968 5.55822410920392  55.4920270553803 5.25963496319626  55.2701088861453 5.03948356794274  C 55.0481907169102 4.81933217268923  54.7472041844225 4.69565217391304  54.4333644803543 4.69565217391304  C 54.4333644803543 4.69565217391304  40.2333563550445 4.69565217391304  40.2333563550445 4.69565217391304  C 39.9195166509763 4.69565217391304  39.6185301184886 4.81933217268923  39.3966119492536 5.03948356794274  C 39.1746937800185 5.25963496319626  39.050022344602 5.55822410920392  39.050022344602 5.8695652173913  C 39.050022344602 5.8695652173913  39.050022344602 13.2244230353314  39.050022344602 13.2244230353314  C 38.2427183626153 13.524607460136  37.4526396142646 13.8685453845107  36.683354323717 14.2546801359757  Z M 53.2500304699118 7  C 53.2500304699118 7  53.2500304699118 12.4819233935812  53.2500304699118 12.4819233935812  C 49.368753914438 11.4915301929349  45.2979669209609 11.4915301929349  41.416690365487 12.4819233935812  C 41.416690365487 12.4819233935812  41.416690365487 7  41.416690365487 7  L 53.2500304699118 7  Z M 16.5666761461948 42  L 16.5666761461948 37  L 42.6000243759295 37  L 42.6000243759295 42  L 16.5666761461948 42  Z M 49 46.9565217391304  L 49 32.8695652173913  L 52 32.8695652173913  L 52 46.9565217391304  L 49 46.9565217391304  Z M 47 28.1739130434783  L 47 51.6521739130435  L 45 51.6521739130435  L 45 28.1739130434783  L 47 28.1739130434783  Z M 28.2495851673296 44.6086956521739  C 28.2495851673296 44.6086956521739  28.2495851673296 44  28.2495851673296 44  L 42.6000243759295 44  L 42.6000243759295 51.6521739130435  C 42.6000243759295 51.6521739130435  33.9437887505912 51.6521739130435  33.9437887505912 51.6521739130435  C 31.5580821131222 49.7370460292567  29.6160054016303 47.3347829010176  28.2495851673296 44.6086956521739  Z M 60.7230810488211 51.6521739130435  C 60.7230810488211 51.6521739130435  60.7230810488211 51  60.7230810488211 51  L 49.7000284385844 51  L 49.7000284385844 49.304347826087  C 49.7000284385844 49.304347826087  53.2500304699118 49.304347826087  53.2500304699118 49.304347826087  C 53.56387017398 49.304347826087  53.8648567064677 49.1806689468415  54.0867748757028 48.960517551588  C 54.3086930449378 48.7403661563345  54.4333644803543 48.4417758907961  54.4333644803543 48.1304347826087  C 54.4333644803543 48.1304347826087  54.4333644803543 44.6086956521739  54.4333644803543 44.6086956521739  C 54.4333644803543 44.6086956521739  57.9833665116818 44.6086956521739  57.9833665116818 44.6086956521739  C 58.29720621575 44.6086956521739  58.5981927482377 44.4850167729284  58.8201109174727 44.2648653776749  C 59.0420290867078 44.0447139824214  59.1667005221243 43.746123716883  59.1667005221243 43.4347826086957  C 59.1667005221243 43.4347826086957  59.1667005221243 36.3913043478261  59.1667005221243 36.3913043478261  C 59.1667005221243 36.0799632396387  59.0420290867078 35.7813729741003  58.8201109174727 35.5612215788468  C 58.5981927482377 35.3410701835933  58.29720621575 35.2173913043478  57.9833665116818 35.2173913043478  C 57.9833665116818 35.2173913043478  54.4333644803543 35.2173913043478  54.4333644803543 35.2173913043478  C 54.4333644803543 35.2173913043478  54.4333644803543 31.695652173913  54.4333644803543 31.695652173913  C 54.4333644803543 31.3843110657257  54.3086930449378 31.0857208001873  54.0867748757028 30.8655694049338  C 53.8648567064677 30.6454180096803  53.56387017398 30.5217391304348  53.2500304699118 30.5217391304348  C 53.2500304699118 30.5217391304348  49.7000284385844 30.5217391304348  49.7000284385844 30.5217391304348  C 49.7000284385844 30.5217391304348  49.7000284385844 27  49.7000284385844 27  C 49.7000284385844 26.6886588918126  49.5753570031679 26.3900686262742  49.3534388339328 26.1699172310207  C 49.1315206646978 25.9497658357672  48.8305341322101 25.8260869565217  48.5166944281419 25.8260869565217  C 48.5166944281419 25.8260869565217  43.783358386372 25.8260869565217  43.783358386372 25.8260869565217  C 43.4695186823038 25.8260869565217  43.1685321498161 25.9497658357672  42.946613980581 26.1699172310207  C 42.724695811346 26.3900686262742  42.6000243759295 26.6886588918126  42.6000243759295 27  C 42.6000243759295 27  42.6000243759295 35.2173913043478  42.6000243759295 35.2173913043478  C 42.6000243759295 35.2173913043478  26.0333482297347 35.2173913043478  26.0333482297347 35.2173913043478  C 26.0333482297347 23.5663041239199  35.5887701383547 14.0869565217391  47.3333604176994 14.0869565217391  C 59.0779506970441 14.0869565217391  68.6333726056642 23.5663041239199  68.6333726056642 35.2173913043478  C 68.642696105539 38.3701101593349  67.936491302072 41.4844710930534  66.567128887441 44.3295205157736  C 65.19776647281 47.1745699384938  63.2003777021344 49.6773192053256  60.7230810488211 51.6521739130435  Z M 54.4333644803543 42.2608695652174  L 54.4333644803543 37.5652173913043  L 56.8000325012393 37.5652173913043  L 56.8000325012393 42.2608695652174  L 54.4333644803543 42.2608695652174  Z " fill-rule="nonzero" fill="#000000" stroke="none" transform="matrix(1 0 0 1 38 457 )" />
  </g>
</svg>