<?xml version="1.0" encoding="utf-8"?>
<svg version="1.1" xmlns:xlink="http://www.w3.org/1999/xlink" width="29px" height="48px" xmlns="http://www.w3.org/2000/svg">
  <g transform="matrix(1 0 0 1 -43 -340 )">
    <path d="M 29 48  C 29 48  26.7965671654071 46.5009178750337  26.7965671654071 46.5009178750337  C 23.7970577349713 44.4727488584816  18.2671553608273 42.0918547803378  9.14068534677653 42.0918547803378  C 6.61669035347281 42.1019588832084  4.0957170758459 42.2739100985876  1.59215725882607 42.6062432321535  C 1.59215725882607 42.6062432321535  0 42.8119986128798  0 42.8119986128798  L 0 1.26393091590228  C 0 1.26393091590228  1.10882374473095 0.999386681707429  1.10882374473095 0.999386681707429  C 3.97968139753668 0.340966572576251  6.9109550617476 0.00606246172235685  9.85146960733679 0  C 15.4240183185863 0  23.2000005422854 1.33741488033285  28.6446078697199 7.68646598898363  C 28.6446078697199 7.68646598898363  29 8.05388791354163  29 8.05388791354163  L 29 48  Z " fill-rule="nonzero" fill="#ffffff" stroke="none" transform="matrix(1 0 0 1 43 340 )" />
  </g>
</svg>