<?xml version="1.0" encoding="utf-8"?>
<svg version="1.1" xmlns:xlink="http://www.w3.org/1999/xlink" width="29px" height="48px" xmlns="http://www.w3.org/2000/svg">
  <g transform="matrix(1 0 0 1 -72 -340 )">
    <path d="M 0 48  L 0 8.10294071757674  C 0 8.10294071757674  0.355392196736676 7.69117644480768  0.355392196736676 7.69117644480768  C 5.80000054228546 1.32353012330797  13.5901937936551 0  19.148527872631 0  C 22.0890429680816 0.00661764612427848  25.0203198918533 0.341912193952093  27.891178081495 1.00000035061552  C 27.891178081495 1.00000035061552  29 1.26470665576954  29 1.26470665576954  L 29 42.8382326593451  C 29 42.8382326593451  27.407844477019 42.6323512241916  27.407844477019 42.6323512241916  C 24.9184998661583 42.3014689124993  22.4117426387554 42.1295961641084  19.9019630172538 42.1176476363079  C 10.7328446125903 42.1176476363079  5.24558856624774 44.5441179512694  2.2460785749187 46.529411909077  C 2.2460785749187 46.529411909077  0 48  0 48  Z " fill-rule="nonzero" fill="#ffffff" stroke="none" transform="matrix(1 0 0 1 72 340 )" />
  </g>
</svg>