<?xml version="1.0" encoding="utf-8"?>
<svg version="1.1" xmlns:xlink="http://www.w3.org/1999/xlink" width="15px" height="22px" xmlns="http://www.w3.org/2000/svg">
  <g transform="matrix(1 0 0 1 -85 -361 )">
    <path d="M 7.5 22  C 11.635714173317 22  15 18.5459998846054  15 14.3  C 15 14.3  15 5.5  15 5.5  C 15 2.46730003356934  12.5967856815883 0  9.64285714285714 0  C 6.68892860412598 0  4.28571428571429 2.46730003356934  4.28571428571429 5.5  C 4.28571428571429 5.5  4.28571428571429 14.3  4.28571428571429 14.3  C 4.28571428571429 16.1194000482559  5.72785709585462 17.6  7.5 17.6  C 9.27214290414538 17.6  10.7142857142857 16.1194000482559  10.7142857142857 14.3  C 10.7142857142857 14.3  10.7142857142857 5.5  10.7142857142857 5.5  L 8.57142857142857 5.5  C 8.57142857142857 5.5  8.57142857142857 14.3  8.57142857142857 14.3  C 8.57142857142857 14.906099998951  8.09035714183535 15.4  7.5 15.4  C 6.90964285816465 15.4  6.42857142857143 14.906099998951  6.42857142857143 14.3  C 6.42857142857143 14.3  6.42857142857143 5.5  6.42857142857143 5.5  C 6.42857142857143 3.68059995174408  7.87071423871177 2.2  9.64285714285714 2.2  C 11.4150000470025 2.2  12.8571428571429 3.68059995174408  12.8571428571429 5.5  C 12.8571428571429 5.5  12.8571428571429 14.3  12.8571428571429 14.3  C 12.8571428571429 17.3326999664307  10.4539285387312 19.8  7.5 19.8  C 4.54607146126883 19.8  2.14285714285714 17.3326999664307  2.14285714285714 14.3  C 2.14285714285714 14.3  2.14285714285714 5.5  2.14285714285714 5.5  L 0 5.5  C 0 5.5  0 14.3  0 14.3  C 0 18.5459998846054  3.36428582668304 22  7.5 22  Z " fill-rule="nonzero" fill="#0d1030" stroke="none" transform="matrix(1 0 0 1 85 361 )" />
  </g>
</svg>