<?xml version="1.0" encoding="utf-8"?>
<svg version="1.1" xmlns:xlink="http://www.w3.org/1999/xlink" width="44px" height="24px" xmlns="http://www.w3.org/2000/svg">
  <g transform="matrix(1 0 0 1 -58 -335 )">
    <path d="M 36.1025641025641 24  C 40.4574357790825 24  44 21.0643636530096  44 17.4545454545455  C 44 15.1789091283625  42.5908718475929 13.1738181547685  40.4585641714243 12  C 42.5908718475929 10.8261818452315  44 8.82109087163752  44 6.54545454545455  C 44 2.93563634699041  40.4574357790825 0  36.1025641025641 0  C 32.385128119053 0  29.2667694825392 2.14254570007324  28.4318976769081 5.0149092240767  C 28.4318976769081 5.0149092240767  22.2685116498898 7.66036397760565  22.2685116498898 7.66036397760565  C 22.2685116498898 7.66036397760565  1.00974410619491 9.823636488481  1.00974410619491 9.823636488481  C 0.435487692172711 9.88254558091814  0 10.350545428016  0 10.9090909090909  C 0 11.7621818239039  0.327178435447888 12.5945461229845  0.942050249148638 13.2752734097567  C 1.55353742379409 13.9134552045302  2.37487208537566 14.3149096044627  3.25487205309746 14.4043641523881  C 3.25487205309746 14.4043641523881  22.2685116498898 16.3385446721857  22.2685116498898 16.3385446721857  C 22.2685116498898 16.3385446721857  28.4318976769081 18.9840004660866  28.4318976769081 18.9840004660866  C 29.2667694825392 21.8574550802057  32.385128119053 24  36.1025641025641 24  Z M 29.6390768197867 10.2949093905362  C 29.6390768197867 10.2949093905362  28.76246095315 10.7574546120384  28.76246095315 10.7574546120384  L 25.1093339186448 8.82872772216797  C 25.1093339186448 8.82872772216797  28.291999621269 7.46290865811435  28.291999621269 7.46290865811435  C 28.4691278323149 8.50581771677191  28.9395896349198 9.46909117698669  29.6390768197867 10.2949093905362  Z M 31.1170270870893 12  C 31.1170270870893 12  31.4509731194912 11.8232720114968  31.4509731194912 11.8232720114968  C 31.5491269628207 11.8832720111717  31.6450255681307 11.944363637404  31.7465640337039 12  C 31.6450255681307 12.055636362596  31.5491269628207 12.1167279888283  31.4509731194912 12.1767279885032  C 31.4509731194912 12.1767279885032  31.1170270870893 12  31.1170270870893 12  Z M 28.76246095315 13.2425453879616  C 28.76246095315 13.2425453879616  29.6390768197867 13.7050906094638  29.6390768197867 13.7050906094638  C 28.9395896349198 14.5298178629442  28.4702560397295 15.4941822832281  28.291999621269 16.5370913418857  C 28.291999621269 16.5370913418857  25.1093339186448 15.171272277832  25.1093339186448 15.171272277832  L 28.76246095315 13.2425453879616  Z M 36.1025641025641 13.0909090909091  C 39.2130256065956 13.0909090909091  41.7435897435897 15.047999902205  41.7435897435897 17.4545454545455  C 41.7435897435897 19.8610910068859  39.2130256065956 21.8181818181818  36.1025641025641 21.8181818181818  C 32.9921025985327 21.8181818181818  30.4615384615385 19.8610910068859  30.4615384615385 17.4545454545455  C 30.4615384615385 15.047999902205  32.9921025985327 13.0909090909091  36.1025641025641 13.0909090909091  Z M 30.4615384615385 6.54545454545455  C 30.4615384615385 4.13890899311413  32.9921025985327 2.18181818181818  36.1025641025641 2.18181818181818  C 39.2130256065956 2.18181818181818  41.7435897435897 4.13890899311413  41.7435897435897 6.54545454545455  C 41.7435897435897 8.95200009779497  39.2130256065956 10.9090909090909  36.1025641025641 10.9090909090909  C 32.9921025985327 10.9090909090909  30.4615384615385 8.95200009779497  30.4615384615385 6.54545454545455  Z M 2.65466738969852 11.8505464033647  L 22.3328184470152 9.84763682972301  L 26.4090267083584 12  L 22.3328184470152 14.152363170277  C 22.3328184470152 14.152363170277  3.49179409711789 12.2356359308416  3.49179409711789 12.2356359308416  C 3.0912812887094 12.1941813867201  2.81035969349054 12.0010918541388  2.65466738969852 11.8505464033647  Z " fill-rule="nonzero" fill="#0d1030" stroke="none" transform="matrix(1 0 0 1 58 335 )" />
  </g>
</svg>