<?xml version="1.0" encoding="utf-8"?>
<svg version="1.1" xmlns:xlink="http://www.w3.org/1999/xlink" width="66px" height="66px" xmlns="http://www.w3.org/2000/svg">
  <g transform="matrix(1 0 0 1 -40 -451 )">
    <path d="M 66 48.666355668203  C 66 45.7886773156536  63.6671478522133 43.4558251678669  60.7894694996639 43.4558251678669  C 56.7682427251657 43.4636409636853  52.771601126476 42.8279556301288  48.9511425730194 41.5730319609648  C 47.1649075423929 40.9484196228273  45.1795337057761 41.3688426360448  43.7997201013827 42.663822305637  C 43.7997201013827 42.663822305637  36.30355741385 48.3190419600974  36.30355741385 48.3190419600974  C 28.2531246536654 44.2771357609936  21.7210737924667 37.7463852640034  17.6777020049463 29.6966040834962  C 17.6777020049463 29.6966040834962  23.183440958076 22.3810202747307  23.183440958076 22.3810202747307  C 24.5735127496696 20.9899714241928  25.070631357264 18.9394636891475  24.4722345028803 17.0662780214836  C 23.2125887444858 13.2406086940383  22.5734848013307 9.23810784740074  22.5790209902882 5.2105305003361  C 22.5790209902882 2.33285214778671  20.2461676002142 0  17.3684892476648 0  C 17.3684892476648 0  5.2105305003361 0  5.2105305003361 0  C 2.33285214778671 0  0 2.33285214778671  0 5.2105305003361  C 0.0382648332647895 38.7678131196378  27.2321868803622 65.9617351667352  60.7894694996639 66  C 63.6671478522133 66  66 63.6671478522133  66 60.7894694996639  C 66 60.7894694996639  66 48.666355668203  66 48.666355668203  Z " fill-rule="nonzero" fill="#009688" stroke="none" transform="matrix(1 0 0 1 40 451 )" />
  </g>
</svg>