<?xml version="1.0" encoding="utf-8"?>
<svg version="1.1" xmlns:xlink="http://www.w3.org/1999/xlink" width="66px" height="66px" xmlns="http://www.w3.org/2000/svg">
  <g transform="matrix(1 0 0 1 -40 -451 )">
    <path d="M 66 60.7894694996639  C 66 63.6671478522133  63.6671478522133 66  60.7894694996639 66  C 27.2321868803622 65.9617351667352  0.0382648332647895 38.7678131196378  0 5.2105305003361  C 0 2.33285214778671  2.33285214778671 0  5.2105305003361 0  C 5.2105305003361 0  17.3684892476648 0  17.3684892476648 0  C 20.2461676002142 0  22.5790209902882 2.33285214778671  22.5790209902882 5.2105305003361  C 22.5734848013307 9.23810784740074  23.2125887444858 13.2406086940383  24.4722345028803 17.0662780214836  C 25.0707942133619 18.9394636891475  24.5735127496696 20.9899714241928  23.183440958076 22.3810202747307  C 23.183440958076 22.3810202747307  17.6777020049463 29.6966040834962  17.6777020049463 29.6966040834962  C 21.7210737924667 37.7463852640034  28.2531246536654 44.2771357609936  36.30355741385 48.3190419600974  C 36.30355741385 48.3190419600974  43.7963013267929 42.6604035310472  43.7963013267929 42.6604035310472  C 45.1761149311863 41.365423861455  47.1614887678031 40.9451636655139  48.9477237984296 41.569613186375  C 52.7691594108306 42.8260023663126  56.7669398763826 43.4628268184645  60.7894694996639 43.4558251678669  C 63.6671478522133 43.4558251678669  66 45.7886773156536  66 48.666355668203  C 66 48.666355668203  66 60.7894694996639  66 60.7894694996639  Z M 17.3683265080313 3.47363275367958  C 17.3683265080313 3.47363275367958  5.2105305003361 3.47363275367958  5.2105305003361 3.47363275367958  C 4.2513044345816 3.47363275367958  3.47363275367958 4.2513044345816  3.47363275367958 5.2105305003361  C 3.50994363889964 36.8501737545807  29.1498262454193 62.4900551188131  60.7894694996639 62.5263660040331  C 61.7486955654184 62.5263660040331  62.5263660040331 61.7486955654184  62.5263660040331 60.7894694996639  C 62.5263660040331 60.7894694996639  62.5263660040331 48.666355668203  62.5263660040331 48.666355668203  C 62.5263660040331 47.7071296024485  61.7486955654184 46.9294591638338  60.7894694996639 46.9294591638338  C 56.3891764647998 46.9309246254739  52.0172147230317 46.2273371837588  47.8395091323926 44.8452439822098  C 47.2192931712899 44.6394280179741  46.5360609457104 44.7991635872687  46.0713467418042 45.258667250115  C 46.0713467418042 45.258667250115  37.5158186085901 51.7579912952554  37.5158186085901 51.7579912952554  C 36.9845073247705 52.1590393243309  36.2708293555044 52.2210751718055  35.6782943501076 51.9177245934935  C 26.2076669716921 47.4176175026833  18.5789599958651 39.7889142537181  14.0788529050549 30.3182868753027  C 13.7781075972728 29.7260775044587  13.8414490886769 29.0140247187029  14.2421714443781 28.4841789068354  C 14.2421714443781 28.4841789068354  20.5643353853409 20.1126471846909  20.5643353853409 20.1126471846909  C 21.132120378936 19.6252997488622  21.3652914119852 18.8526764128872  21.1617550643158 18.1326462405526  C 19.7908971089114 13.9625934501194  19.0965943136486 9.60007681852788  19.1052242546879 5.2105305003361  C 19.1052242546879 4.2513044345816  18.3275525737858 3.47363275367958  17.3683265080313 3.47363275367958  Z " fill-rule="nonzero" fill="#000000" stroke="none" transform="matrix(1 0 0 1 40 451 )" />
  </g>
</svg>