<?xml version="1.0" encoding="utf-8"?>
<svg version="1.1" xmlns:xlink="http://www.w3.org/1999/xlink" width="66px" height="66px" xmlns="http://www.w3.org/2000/svg">
  <g transform="matrix(1 0 0 1 -39 -330 )">
    <path d="M 66 1.1  C 66 0.492800015211105  65.5071999847889 0  64.9 0  C 64.9 0  1.1 0  1.1 0  C 0.492800015211105 0  0 0.492800015211105  0 1.1  C 0 1.1  0 64.9  0 64.9  C 0 65.5071999847889  0.492800015211105 66  1.1 66  C 1.1 66  56.1 66  56.1 66  C 56.3914999842644 66  56.672000798583 65.884500798583  56.8777008056641 65.6777008056641  C 56.8777008056641 65.6777008056641  65.6777008056641 56.8777008056641  65.6777008056641 56.8777008056641  C 65.884500798583 56.672000798583  66 56.3914999842644  66 56.1  C 66 56.1  66 1.1  66 1.1  Z M 14.334100151062 63.8  C 14.334100151062 63.8  10.7293996810913 63.8  10.7293996810913 63.8  C 8.45239975452423 63.8  6.6 61.9475981473923  6.6 59.6705982208252  C 6.6 59.6705982208252  6.6 59.4  6.6 59.4  C 6.6 59.4  18.4393005371094 59.4  18.4393005371094 59.4  C 18.5174005396664 60.5880000472069  18.1005008995533 61.7441016852856  17.2546009063721 62.5900016784668  C 16.4747009158134 63.3699016690254  15.4374001741409 63.8  14.334100151062 63.8  Z M 14 9.47980003356934  L 14 25.3  L 9 25.3  L 9 11.6798000335693  L 14 9.47980003356934  Z M 7.7 29.7  L 7.7 27.5  L 14.3 27.5  L 14.3 29.7  L 7.7 29.7  Z M 7 57  L 7 31.9  L 15.4 31.9  L 15.5121992111206 31.9  L 18.2225999832153 57  L 7 57  Z M 41.8 63  L 26.4 63  C 26.4 63  26.4 44  26.4 44  C 26.4 42.1805999517441  27.8805999517441 40.7  29.7 40.7  C 29.7 40.7  38.5 40.7  38.5 40.7  C 40.3194000482559 40.7  41.8 42.1805999517441  41.8 44  C 41.8 44  41.8 63  41.8 63  Z M 35.2 28.7089010238647  L 35.2 33  L 33 33  L 33 28.7089010238647  L 33.9019996643066 24.2  L 34.2980003356934 24.2  L 35.2 28.7089010238647  Z M 30.8 35.2  L 31.9 35.2  L 36.3 35.2  L 37.4 35.2  L 37.4 38.5  L 30.8 38.5  L 30.8 35.2  Z M 62.2445983886719 57.2  L 55.6445983886719 63  L 44 63  C 44 63  44 44  44 44  C 44 41.3445999622345  42.1069000482559 39.1226019173861  39.6 38.6111019134521  C 39.6 38.6111019134521  39.6 34.1  39.6 34.1  C 39.6 33.4928000152111  39.1071999847889 33  38.5 33  C 38.5 33  37.4 33  37.4 33  C 37.4 33  37.4 28.6  37.4 28.6  C 37.4 28.5274000003934  37.3933994969353 28.4559009373188  37.37799949646 28.3844009399414  C 37.37799949646 28.3844009399414  36.27799949646 22.8844009399414  36.27799949646 22.8844009399414  C 36.1756994940341 22.3696009457111  35.7246999979019 22  35.2 22  C 35.2 22  33 22  33 22  C 32.4753000020981 22  32.0243005059659 22.3696009457111  31.92200050354 22.8844009399414  C 31.92200050354 22.8844009399414  30.82200050354 28.3844009399414  30.82200050354 28.3844009399414  C 30.8066005030647 28.4559009373188  30.8 28.5274000003934  30.8 28.6  C 30.8 28.6  30.8 33  30.8 33  C 30.8 33  29.7 33  29.7 33  C 29.0928000152111 33  28.6 33.4928000152111  28.6 34.1  C 28.6 34.1  28.6 38.6111019134521  28.6 38.6111019134521  C 26.0930999517441 39.1226019173861  24.2 41.3435000419617  24.2 44  C 24.2 44  24.2 63.8  24.2 63.8  C 24.2 63.8  19.1191005706787 63.8  19.1191005706787 63.8  C 20.2642005801201 62.4767000555992  20.8153008937836 60.7540994167328  20.6272008895874 58.9962993621826  C 20.6272008895874 58.9962993621826  17.5933994293213 30.6833990097046  17.5933994293213 30.6833990097046  C 17.5339994277805 30.1234990060329  17.0620999753475 29.7  16.5 29.7  C 16.5 29.7  16.5 26.4  16.5 26.4  C 16.5 25.7928000152111  16.0071999847889 25.3  15.4 25.3  C 15.4 25.3  15.4 7.7  15.4 7.7  C 15.4 7.31829999685287  15.2020000249147 6.96520018279552  14.878600025177 6.76390018463135  C 14.5541000396013 6.56370018869638  14.1493004977703 6.54609949737787  13.8083004951477 6.71549949645996  C 13.8083004951477 6.71549949645996  7.20830049514771 10.01549949646  7.20830049514771 10.01549949646  C 6.83540050983429 10.2024994984269  6.6 10.5830999910831  6.6 11  C 6.6 11  6.6 25.3  6.6 25.3  C 5.99280001521111 25.3  5.5 25.7928000152111  5.5 26.4  C 5.5 26.4  5.5 29.7  5.5 29.7  C 4.89280001521111 29.7  4.4 30.1928000152111  4.4 30.8  C 4.4 30.8  4.4 59.6705982208252  4.4 59.6705982208252  C 4.4 61.2490981578827  4.98409988880157 62.6901000618935  5.94329986572266 63.8  C 5.94329986572266 63.8  3 63.8  3 63.8  L 3 3  L 63 3  L 63 55  C 63 55  56.1 55  56.1 55  C 55.4928000152111 55  55 55.4928000152111  55 56.1  C 55 56.1  55 60.5  55 60.5  L 57.2 60.5  L 57.2 57.2  L 62.2445983886719 57.2  Z " fill-rule="nonzero" fill="#0d1030" stroke="none" transform="matrix(1 0 0 1 39 330 )" />
  </g>
</svg>