<?xml version="1.0" encoding="utf-8"?>
<svg version="1.1" xmlns:xlink="http://www.w3.org/1999/xlink" width="7px" height="21px" xmlns="http://www.w3.org/2000/svg">
  <g transform="matrix(1 0 0 1 -48 -365 )">
    <path d="M 7 9.94736842105263  C 7 9.33726317317862  6.47733331720034 8.84210526315789  5.83333333333333 8.84210526315789  C 5.83333333333333 8.84210526315789  4.66666666666667 8.84210526315789  4.66666666666667 8.84210526315789  L 4.66666666666667 0  L 2.33333333333333 0  L 2.33333333333333 8.84210526315789  C 2.33333333333333 8.84210526315789  1.16666666666667 8.84210526315789  1.16666666666667 8.84210526315789  C 0.522666682799657 8.84210526315789  0 9.33726317317862  0 9.94736842105263  C 0 9.94736842105263  0 15.4736842105263  0 15.4736842105263  C 0 16.0837894584003  0.522666682799657 16.5789473684211  1.16666666666667 16.5789473684211  C 1.16666666666667 16.5789473684211  2.33333333333333 16.5789473684211  2.33333333333333 16.5789473684211  L 2.33333333333333 21  L 4.66666666666667 21  L 4.66666666666667 16.5789473684211  C 4.66666666666667 16.5789473684211  5.83333333333333 16.5789473684211  5.83333333333333 16.5789473684211  C 6.47733331720034 16.5789473684211  7 16.0837894584003  7 15.4736842105263  C 7 15.4736842105263  7 9.94736842105263  7 9.94736842105263  Z M 4.66666666666667 11.0526315789474  L 4.66666666666667 14.3684210526316  L 2.33333333333333 14.3684210526316  L 2.33333333333333 11.0526315789474  L 4.66666666666667 11.0526315789474  Z " fill-rule="nonzero" fill="#0d1030" stroke="none" transform="matrix(1 0 0 1 48 365 )" />
  </g>
</svg>