<?xml version="1.0" encoding="utf-8"?>
<svg version="1.1" xmlns:xlink="http://www.w3.org/1999/xlink" width="11px" height="7px" xmlns="http://www.w3.org/2000/svg">
  <g transform="matrix(1 0 0 1 -14 -18 )">
    <path d="M 10.6966075479139 6.43845569745854  C 10.4025110928157 6.80308220282574  9.95283332096169 7  9.4931194237327 7  C 9.24419138097892 7  8.99325712124676 6.94252555567793  8.76239642847384 6.82192556713752  C 8.76239642847384 6.82192556713752  6.20385653223551 5.48496290281784  6.20385653223551 5.48496290281784  C 5.9629584277922 5.44162228391046  5.71704315807677 5.41618226178019  5.46911885948141 5.41147132505688  C 4.34793892293097 5.39639632648933  3.32311770765692 5.76667672389531  2.57031111444502 6.47331724818564  C 1.98211820424852 7.02543906830912  1.02956668803639 7.02543906830912  0.441373777839892 6.47331724818564  C -0.146819132356609 5.92119542806216  -0.146819132356609 5.02611716106578  0.441373777839892 4.47493757233647  C 0.93320742831076 4.01420795746287  1.48626969679934 3.63167970143188  2.08751120627074 3.33394848016149  C 2.08751120627074 3.33394848016149  0.773612750269029 2.64803547409821  0.773612750269029 2.64803547409821  C 0.0469034752623151 2.26833396840849  -0.214069826444867 1.4081177575679  0.190438246769261 0.725974126351268  C 0.594946319983389 0.044772670370063  1.51035907797998 -0.201137663419536  2.23807214201589 0.178563842270179  C 2.23807214201589 0.178563842270179  7.29090943662416 2.81857295434718  7.29090943662416 2.81857295434718  C 8.52049356280133 3.12572604028937  9.64568847598547 3.72966634710737  10.5590938354068 4.58799904985825  C 11.0900734033577 5.08641615149845  11.1482914918755 5.87596983742782  10.6966075479139 6.43845569745854  Z " fill-rule="nonzero" fill="#000000" stroke="none" transform="matrix(1 0 0 1 14 18 )" />
  </g>
</svg>