<?xml version="1.0" encoding="utf-8"?>
<svg version="1.1" xmlns:xlink="http://www.w3.org/1999/xlink" width="28px" height="13px" xmlns="http://www.w3.org/2000/svg">
  <g transform="matrix(1 0 0 1 -17 -38 )">
    <path d="M 2.97061211340728 11.5270793323777  C 2.97061211340727 12.3401315498015  2.30618520026452 13  1.48530605670364 13  C 0.664426913142756 13  0 12.3401315498015  0 11.5270793323777  C 0 5.17093562933562  5.15797294245537 0  11.4972591433612 0  C 11.4972591433612 0  16.5027408566388 0  16.5027408566388 0  C 22.8430171898132 0  28 5.14245701298795  28 11.4632503727822  C 28 12.2772845246757  27.3355730868572 12.9361710404045  26.5146939432964 12.9361710404045  C 25.6938147997355 12.9361710404045  25.0293878865927 12.2772845246757  25.0293878865927 11.4632503727822  C 25.0293878865927 6.76659734478213  21.2042297716632 2.94584133524467  16.5027408566388 2.94584133524467  C 16.5027408566388 2.94584133524467  11.4972591433612 2.94584133524467  11.4972591433612 2.94584133524467  C 6.79577022833682 2.94584133524467  2.97061211340728 6.79507642935867  2.97061211340728 11.5270793323777  Z " fill-rule="nonzero" fill="#000000" stroke="none" transform="matrix(1 0 0 1 17 38 )" />
  </g>
</svg>