<?xml version="1.0" encoding="utf-8"?>
<svg version="1.1" xmlns:xlink="http://www.w3.org/1999/xlink" width="60px" height="64px" xmlns="http://www.w3.org/2000/svg">
  <g transform="matrix(1 0 0 1 -1 0 )">
    <path d="M 60 34.3468250482557  C 60 50.6978474058343  46.6264499260908 64  30.1881293191626 64  C 13.7498087122345 64  0.376261276225928 50.6978474058343  0.376261276225928 34.3468250482557  C 0.376261276225928 28.6003025478961  1.99967497866498 23.1109390793736  5.09059813837755 18.3380134183165  C 0.412471258873338 15.604337633146  0.0272374544087365 4.07426999763582  7.99767907239952E-05 1.51770282124362  C -0.00595501813141717 0.933344633353317  0.329993038340367 0.398016554250951  0.860066764466167 0.146862616249651  C 1.38913467106338 -0.106292552507519  2.01979148914128 -0.027244101663918  2.47141027284846 0.345984673880708  C 2.47141027284846 0.345984673880708  13.7296935207085 9.62667421803822  13.7296935207085 9.62667421803822  C 18.6180394994448 6.39469307801809  24.2828870271883 4.69264907855534  30.1881293191626 4.69264907855534  C 35.8881817894047 4.69264907855534  41.3880737154143 6.28662655755984  46.1667837468229 9.31448257796954  C 46.1667837468229 9.31448257796954  57.0458697350301 0.345984673880708  57.0458697350301 0.345984673880708  C 57.4984943382658 -0.027244101663918  58.1251253602333 -0.106292552507519  58.6572107254163 0.146862616249651  C 59.1872844515421 0.398016554250951  59.5232320288347 0.932344032885682  59.5171970339125 1.51770282124362  C 59.493057054224 3.88715526489879  59.1490640888355 14.5907167751381  55.0160982283859 17.9307641970517  C 58.2820362642595 22.7977473756081  60 28.4362019241206  60 34.3468250482557  Z M 7.42412918103257 15.9095247717352  C 7.47844413626859 15.9035210915822  7.53275919642112 15.9005194271677  7.58807998242679 15.9005194271677  C 8.12620038468585 15.9005194271677  8.62911752311041 16.1876952802099  8.89868063400423 16.6599847843362  C 9.1964070514122 17.1813043674299  9.15416173192726 17.8277015735497  8.79105620582915 18.3049941396554  C 5.26058421665702 22.9578463132074  3.39375895087653 28.5052444895703  3.39375895087653 34.3468250482557  C 3.39375895087653 49.0428335965101  15.4134559152444 60.9991638303298  30.1881293191626 60.9991638303298  C 44.9617964838863 60.9991638303298  56.9825025651585 49.0428335965101  56.9825025651585 34.3468250482557  C 56.9825025651585 28.4962386678732  55.1106477820691 22.9438358788597  51.5701174777065 18.2869815420018  C 51.2542860689749 17.8727276105134  51.1778431553033 17.3253929818526  51.3669396547452 16.8400954927234  C 51.5550303346585 16.3547980035942  51.9835155389934 16.0015818934555  52.4974959128527 15.9065236263856  C 54.5544234076752 15.5262905581057  55.8811133647398 9.98389210381482  56.3307204794137 4.83373535480433  C 56.3307204794137 4.83373535480433  47.2289425983225 12.3363353534206  47.2289425983225 12.3363353534206  C 46.7089271873872 12.7665991011355  45.9636077823825 12.7976176261704  45.4083882682806 12.4153833271346  C 40.9193580980512 9.32649002214597  35.6568403002155 7.69448912895931  30.1881293191626 7.69448912895931  C 24.5283101096823 7.69448912895931  19.1149211811272 9.43355552464816  14.530336656875 12.7245728675944  C 13.9731054437636 13.1248182136124  13.2137019274581 13.0998029931773  12.6846340208608 12.6635355830154  C 12.6846340208608 12.6635355830154  3.18555137079706 4.83273481397789  3.18555137079706 4.83273481397789  C 3.65125180776131 10.2230390151281  5.06243471195883 15.918531070562  7.25716110090945 15.918531070562  C 7.31147605614548 15.918531070562  7.3667967297406 15.9155284518882  7.42412918103257 15.9095247717352  Z " fill-rule="nonzero" fill="#000000" stroke="none" transform="matrix(1 0 0 1 1 0 )" />
  </g>
</svg>