<?xml version="1.0" encoding="utf-8"?>
<svg version="1.1" xmlns:xlink="http://www.w3.org/1999/xlink" width="30px" height="14px" xmlns="http://www.w3.org/2000/svg">
  <g transform="matrix(1 0 0 1 -17 -35 )">
    <path d="M 30 1.75180274919779  C 30 8.62101086405965  24.5972013872066 14  17.6999022539468 14  C 17.6999022539468 14  12.3001015620225 14  12.3001015620225 14  C 5.40280242876269 14  0 8.52935253403525  0 1.54479940846086  C 0 0.691040272646787  0.67222407075901 0  1.50050017817397 0  C 2.32977660616214 0  3.00100035634793 0.691040272646787  3.00100035634793 1.54479940846086  C 3.00100035634793 6.79711729901209  7.08536345549247 10.9114304836281  12.3001015620225 10.9114304836281  C 12.3001015620225 10.9114304836281  17.6999022539468 10.9114304836281  17.6999022539468 10.9114304836281  C 22.9146403604768 10.9114304836281  26.9989996436521 6.88774583740812  26.9989996436521 1.75180274919779  C 26.9989996436521 0.898043613383713  27.6702233938379 0.207003340736926  28.499499821826 0.207003340736926  C 29.3287762498142 0.207003340736926  30 0.898043613383713  30 1.75180274919779  Z " fill-rule="nonzero" fill="#000000" stroke="none" transform="matrix(1 0 0 1 17 35 )" />
  </g>
</svg>