<?xml version="1.0" encoding="utf-8"?>
<svg version="1.1" xmlns:xlink="http://www.w3.org/1999/xlink" width="44px" height="40px" xmlns="http://www.w3.org/2000/svg">
  <g transform="matrix(1 0 0 1 -62 -470 )">
    <path d="M 43.9999911659678 22.3521989291469  C 44.0032271848238 25.7573952148214  43.2393964508874 29.1181730868486  41.7670040062336 32.1771148900648  C 40.2946115615798 35.2360566932809  38.152717905459 37.9120051062999  35.5053867519231 40  C 35.5053867519231 40  8.49460993531481 40  8.49460993531481 40  C 5.547232809676 37.6710792794855  3.2316843031093 34.6182852885604  1.7659946804068 31.1290566528883  C 0.3003050577043 27.6398280172162  -0.26730124271368 23.8289748578404  0.116621277277333 20.0553221759951  C 0.500543797268347 16.2816694941498  1.82336468009359 12.6693805455696  3.96052522738598 9.55858500177279  C 6.09768577467837 6.44778945797597  8.9788670122781 3.9408406657152  12.3327849206282 2.27378956793365  C 15.6867028289784 0.606738470152101  19.4029988126258 -0.16556227968142  23.1317565790451 0.0296027451936994  C 26.8605143454645 0.224767770068819  30.4790449226601 1.3809788084627  33.6466312823521 3.38936855120662  C 36.8142176420442 5.39775829395053  39.4266402890495 8.1922447298856  41.2379117311531 11.5097032040321  C 43.0491831732567 14.8271616781786  43.9997090593423 18.5584368955133  43.9999911659678 22.3521989291469  Z " fill-rule="nonzero" fill="#c082d9" stroke="none" transform="matrix(1 0 0 1 62 470 )" />
  </g>
</svg>