<?xml version="1.0" encoding="utf-8"?>
<svg version="1.1" xmlns:xlink="http://www.w3.org/1999/xlink" width="75px" height="54px" xmlns="http://www.w3.org/2000/svg">
  <g transform="matrix(1 0 0 1 -35 -338 )">
    <path d="M 73.5462298938133 4.49355320028461  C 73.5415051408707 4.49355320028461  73.5366011070919 4.49355320028461  73.5316946328563 4.49355320028461  C 73.5316946328563 4.49355320028461  68.6034093145013 4.49355320028461  68.6034093145013 4.49355320028461  C 68.6034093145013 4.49355320028461  68.6034093145013 2.80122340490767  68.6034093145013 2.80122340490767  C 68.6299406185493 2.13140347392902  68.1981746632738 1.52942259385539  67.556698609118 1.34231798010247  C 64.1352508250327 0.442538110202275  60.6120347246885 -0.00862847252335259  57.0750119287853 0.000124959579821271  C 51.2599315040385 0.000124959579821271  43.3368881686636 1.31314016204453  37.4781943357181 7.29465190808792  C 31.6631139109712 1.25478400418344  23.6819153209304 0.000124959579821271  17.8813725833812 0.000124959579821271  C 14.344349787478 -0.00862847252335259  10.8211378464034 0.442538110202275  7.39969006231806 1.34231798010247  C 6.75821400816226 1.52942259385539  6.32644389361716 2.13140347392902  6.35297519766513 2.80122340490767  C 6.35297519766513 2.80122340490767  6.35297519766513 4.4789638129892  6.35297519766513 4.4789638129892  C 6.35297519766513 4.4789638129892  1.45377010618671 4.4789638129892  1.45377010618671 4.4789638129892  C 0.650925524838825 4.4789638129892  0 5.13218898549234  0 5.93786949866701  C 0 5.93786949866701  0 52.5353067686611  0 52.5353067686611  C 0 53.3409872818358  0.650925524838825 53.9942121065088  1.45377010618671 53.9942121065088  C 1.70345511343243 53.9934826538052  1.94877884484688 53.9281950768225  2.16611747208243 53.8045528543096  C 2.31149448486738 53.7316075863302  16.8491943661085 45.7513954172168  37.1438251039318 50.8867421786142  C 37.1438251039318 50.8867421786142  37.361892838137 50.8867421786142  37.361892838137 50.8867421786142  C 37.361892838137 50.8867421786142  37.4927323695215 50.8867421786142  37.4927323695215 50.8867421786142  C 37.6086705375695 50.9007841424149  37.7256986942167 50.9007841424149  37.8416368622647 50.8867421786142  C 58.1944183488786 45.707628298821  72.7321186362984 53.6732513686858  72.8193448407199 53.8045528543096  C 73.2691049499912 54.0651498239348  73.8233548376354 54.0651498239348  74.2731149469066 53.8045528543096  C 74.7201492614912 53.5455971646678  74.9969107383565 53.0679871460274  75 52.5498933733154  C 75 52.5498933733154  75 5.95245888596242  75 5.95245888596242  C 75 5.14677837278775  74.3492561832534 4.49355320028461  73.5462298938133 4.49355320028461  Z M 29.5551461478619 46.612149093498  C 20.5117875919781 45.5146875301453  11.338861548007 46.7551236281064  2.90754021237342 50.215647058872  C 2.90754021237342 50.215647058872  2.90754021237342 7.41136422381009  2.90754021237342 7.41136422381009  L 6.3820505720604 7.41136422381009  C 6.3820505720604 7.41136422381009  6.3820505720604 44.0007127683651  6.3820505720604 44.0007127683651  C 6.37296450876134 44.8063932815398  7.01643953403536 45.4669119649323  7.81928411538324 45.4760301234297  C 7.89778770315363 45.4769419392455  7.97629135591261 45.471471711648  8.05388633281744 45.4596181062128  C 11.0613731013489 44.9987863916637  14.0977539694406 44.7549668293802  17.1399494964844 44.730165437289  C 21.3540656888427 44.656855442236  25.550554549875 45.2929339041836  29.5551461478619 46.612149093498  Z M 35.9953481619245 10.1395170386268  C 35.9953481619245 10.1395170386268  36.0389622633348 46.4808473904804  36.0389622633348 46.4808473904804  C 33.0151205533803 44.4967361101378  27.1128126190244 41.8269413662479  17.1399494964844 41.8269413662479  C 14.4957234597559 41.8329593507339  11.8545865472472 42.0034666828841  9.23144003564328 42.3375560083817  C 9.23144003564328 42.3375560083817  9.23144003564328 3.95375839223944  9.23144003564328 3.95375839223944  C 12.0619304712086 3.32095819673056  14.9523885631842 2.99799325554001  17.8522965157743 2.99088109187127  C 23.2893967267768 2.99088109187127  30.7908512926899 4.245539529375  35.9953481619245 10.1395170386268  Z M 38.9465024757082 10.1395170386268  C 44.1509993449428 4.30389568723609  51.6524525244327 2.99088109187127  57.0895527354352 2.99088109187127  C 59.9892788932816 2.99945216043764  62.8797378517716 3.3222347333359  65.7104099087778 3.95375839223944  C 65.7104099087778 3.95375839223944  65.7104099087778 42.3375560083817  65.7104099087778 42.3375560083817  C 63.1019828791152 42.0003665163456  60.4753840004099 41.8249378198173  57.8455138561354 41.8123547615936  C 47.9308014823859 41.8123547615936  42.0139572472556 44.4821495054834  38.9465024757082 46.4662607858261  C 38.9465024757082 46.4662607858261  38.9465024757082 10.1395170386268  38.9465024757082 10.1395170386268  Z M 72.1360711161905 7.41136422381009  C 72.1360711161905 7.41136422381009  72.0779245266696 50.215647058872  72.0779245266696 50.215647058872  C 63.6286129634341 46.7456407350625  54.434602888463 45.5050222871517  45.3721636831209 46.612149093498  C 49.3954723410787 45.2881924576616  53.6119534248313 44.6519316403295  57.8455138561354 44.730165437289  C 60.9067903792433 44.7473075744217  63.9627981475389 44.9862002016101  66.9897291550161 45.4450259362763  C 67.7834876385397 45.5659327138895  68.5247260062064 45.0181166167784  68.6452072015036 44.2215542967483  C 68.6570190831831 44.1436852268624  68.6624700560111 44.0649014887159  68.6615614497151 43.9861205984286  C 68.6615614497151 43.9861205984286  68.6615614497151 7.41136422381009  68.6615614497151 7.41136422381009  L 72.1360711161905 7.41136422381009  Z " fill-rule="nonzero" fill="#3f2e1b" stroke="none" transform="matrix(1 0 0 1 35 338 )" />
  </g>
</svg>