<?xml version="1.0" encoding="utf-8"?>
<svg version="1.1" xmlns:xlink="http://www.w3.org/1999/xlink" width="32px" height="46px" xmlns="http://www.w3.org/2000/svg">
  <g transform="matrix(1 0 0 1 -36 -344 )">
    <path d="M 0 46  L 0 0  L 6.34794401513537 0  C 6.34794401513537 0  6.34794401513537 37.6547414075921  6.34794401513537 37.6547414075921  C 9.43045671305296 37.1896519801972  12.5427930014696 36.9483541021288  15.6601902711771 36.932833072395  C 20.0133760908108 36.8622665321561  24.3481269068639 37.516129734966  28.4862199873769 38.8675421233088  C 28.4862199873769 38.8675421233088  32 41.6685499888169  32 41.6685499888169  C 29.9322187050662 41.4375393267173  23.6999550010502 41.3220315645239  21.6610936977079 41.3220315645239  C 14.9256212436413 41.2637374639611  8.24744750977225 42.5599230588986  2.02440147992332 45.1337066931293  C 2.02440147992332 45.1337066931293  0 46  0 46  Z " fill-rule="nonzero" fill="#ed7d32" stroke="none" transform="matrix(1 0 0 1 36 344 )" />
  </g>
</svg>