<?xml version="1.0" encoding="utf-8"?>
<svg version="1.1" xmlns:xlink="http://www.w3.org/1999/xlink" width="32px" height="46px" xmlns="http://www.w3.org/2000/svg">
  <g transform="matrix(1 0 0 1 -77 -344 )">
    <path d="M 32 46  C 32 46  29.8978120481794 45.1195472539505  29.8978120481794 45.1195472539505  C 23.6151471338604 42.5465710724087  16.8729907577117 41.2507921194787  10.0729902008216 41.3090679318966  C 7.99999738957738 41.3090679318966  2.07299281124417 41.5400056907008  0 41.770943879661  C 0 41.770943879661  3.18247967873007 38.8842164531358  3.18247967873007 38.8842164531358  C 7.37737069880665 37.5178922863276  11.7737236947713 36.8544908555363  16.1897825970433 36.921246428135  C 19.3370455863322 36.9373038497246  22.4791970200808 37.1785260313598  25.5912412315904 37.6429282847663  C 25.5912412315904 37.6429282847663  25.5912412315904 0  25.5912412315904 0  L 32 0  L 32 46  Z " fill-rule="nonzero" fill="#ed7d32" stroke="none" transform="matrix(1 0 0 1 77 344 )" />
  </g>
</svg>