<?xml version="1.0" encoding="utf-8"?>
<svg version="1.1" xmlns:xlink="http://www.w3.org/1999/xlink" width="18px" height="20px" xmlns="http://www.w3.org/2000/svg">
  <defs>
    <mask fill="white" id="clip46">
      <path d="M 0 18  C 0 18  0 7  0 7  L 9 0  L 18 7  C 18 7  18 18  18 18  C 18 18.5304329991341  17.7892859280109 19.039140433073  17.414213180542 19.414213180542  C 17.039140433073 19.7892859280109  16.5304329991341 20  16 20  C 16 20  2 20  2 20  C 1.46956700086594 20  0.960859090089798 19.7892859280109  0.58578634262085 19.414213180542  C 0.210713595151901 19.039140433073  0 18.5304329991341  0 18  Z " fill-rule="evenodd" />
    </mask>
  </defs>
  <g transform="matrix(1 0 0 1 -39 -68 )">
    <path d="M 0 18  C 0 18  0 7  0 7  L 9 0  L 18 7  C 18 7  18 18  18 18  C 18 18.5304329991341  17.7892859280109 19.039140433073  17.414213180542 19.414213180542  C 17.039140433073 19.7892859280109  16.5304329991341 20  16 20  C 16 20  2 20  2 20  C 1.46956700086594 20  0.960859090089798 19.7892859280109  0.58578634262085 19.414213180542  C 0.210713595151901 19.039140433073  0 18.5304329991341  0 18  Z " fill-rule="nonzero" fill="#ffffff" stroke="none" fill-opacity="0" transform="matrix(1 0 0 1 39 68 )" />
    <path d="M 0 18  C 0 18  0 7  0 7  L 9 0  L 18 7  C 18 7  18 18  18 18  C 18 18.5304329991341  17.7892859280109 19.039140433073  17.414213180542 19.414213180542  C 17.039140433073 19.7892859280109  16.5304329991341 20  16 20  C 16 20  2 20  2 20  C 1.46956700086594 20  0.960859090089798 19.7892859280109  0.58578634262085 19.414213180542  C 0.210713595151901 19.039140433073  0 18.5304329991341  0 18  Z " stroke-width="4" stroke="#a64ac9" fill="none" transform="matrix(1 0 0 1 39 68 )" mask="url(#clip46)" />
  </g>
</svg>