<?xml version="1.0" encoding="utf-8"?>
<svg version="1.1" xmlns:xlink="http://www.w3.org/1999/xlink" width="7px" height="5px" xmlns="http://www.w3.org/2000/svg">
  <defs>
    <mask fill="white" id="clip44">
      <path d="M 4.5 0  C 1 0  0 5  0 5  C 0 5  4.5 5  4.5 5  C 5.16304123401642 5  5.79892599582672 4.73660790920258  6.26776695251465 4.26776695251465  C 6.73660790920258 3.79892599582672  7 3.16304123401642  7 2.5  C 7 1.83695876598358  6.73660790920258 1.20107400417328  6.26776695251465 0.732233047485352  C 5.79892599582672 0.263392090797424  5.16304123401642 0  4.5 0  Z " fill-rule="evenodd" />
    </mask>
  </defs>
  <g transform="matrix(1 0 0 1 -188 -531 )">
    <path d="M 4.5 0  C 1 0  0 5  0 5  C 0 5  4.5 5  4.5 5  C 5.16304123401642 5  5.79892599582672 4.73660790920258  6.26776695251465 4.26776695251465  C 6.73660790920258 3.79892599582672  7 3.16304123401642  7 2.5  C 7 1.83695876598358  6.73660790920258 1.20107400417328  6.26776695251465 0.732233047485352  C 5.79892599582672 0.263392090797424  5.16304123401642 0  4.5 0  Z " fill-rule="nonzero" fill="#ffffff" stroke="none" fill-opacity="0" transform="matrix(1 0 0 1 188 531 )" />
    <path d="M 4.5 0  C 1 0  0 5  0 5  C 0 5  4.5 5  4.5 5  C 5.16304123401642 5  5.79892599582672 4.73660790920258  6.26776695251465 4.26776695251465  C 6.73660790920258 3.79892599582672  7 3.16304123401642  7 2.5  C 7 1.83695876598358  6.73660790920258 1.20107400417328  6.26776695251465 0.732233047485352  C 5.79892599582672 0.263392090797424  5.16304123401642 0  4.5 0  Z " stroke-width="4" stroke="#5c5c5c" fill="none" transform="matrix(1 0 0 1 188 531 )" mask="url(#clip44)" />
  </g>
</svg>