<?xml version="1.0" encoding="utf-8"?>
<svg version="1.1" xmlns:xlink="http://www.w3.org/1999/xlink" width="7px" height="5px" xmlns="http://www.w3.org/2000/svg">
  <defs>
    <mask fill="white" id="clip43">
      <path d="M 2.5 0  C 6 0  7 5  7 5  C 7 5  2.5 5  2.5 5  C 1.83695876598358 5  1.20107400417328 4.73660790920258  0.732233047485352 4.26776695251465  C 0.263392090797424 3.79892599582672  0 3.16304123401642  0 2.5  C 0 1.83695876598358  0.263392090797424 1.20107400417328  0.732233047485352 0.732233047485352  C 1.20107400417328 0.263392090797424  1.83695876598358 0  2.5 0  Z " fill-rule="evenodd" />
    </mask>
  </defs>
  <g transform="matrix(1 0 0 1 -181 -531 )">
    <path d="M 2.5 0  C 6 0  7 5  7 5  C 7 5  2.5 5  2.5 5  C 1.83695876598358 5  1.20107400417328 4.73660790920258  0.732233047485352 4.26776695251465  C 0.263392090797424 3.79892599582672  0 3.16304123401642  0 2.5  C 0 1.83695876598358  0.263392090797424 1.20107400417328  0.732233047485352 0.732233047485352  C 1.20107400417328 0.263392090797424  1.83695876598358 0  2.5 0  Z " fill-rule="nonzero" fill="#ffffff" stroke="none" fill-opacity="0" transform="matrix(1 0 0 1 181 531 )" />
    <path d="M 2.5 0  C 6 0  7 5  7 5  C 7 5  2.5 5  2.5 5  C 1.83695876598358 5  1.20107400417328 4.73660790920258  0.732233047485352 4.26776695251465  C 0.263392090797424 3.79892599582672  0 3.16304123401642  0 2.5  C 0 1.83695876598358  0.263392090797424 1.20107400417328  0.732233047485352 0.732233047485352  C 1.20107400417328 0.263392090797424  1.83695876598358 0  2.5 0  Z " stroke-width="4" stroke="#5c5c5c" fill="none" transform="matrix(1 0 0 1 181 531 )" mask="url(#clip43)" />
  </g>
</svg>