<?xml version="1.0" encoding="utf-8"?>
<svg version="1.1" xmlns:xlink="http://www.w3.org/1999/xlink" width="9px" height="12px" xmlns="http://www.w3.org/2000/svg">
  <g transform="matrix(1 0 0 1 -54 -450 )">
    <path d="M 0.139507309756602 11.4120550710287  C 0.341375585871113 11.7743163608752  0.731253054420373 12  1.15485306769535 12  C 1.15485306769535 12  7.84514715257535 12  7.84514715257535 12  C 8.48308788487655 12  9 11.4971172449252  9 10.8768252275584  C 9 10.2565332101916  8.48308788487655 9.75365045511673  7.84514715257535 9.75365045511673  C 7.84514715257535 9.75365045511673  3.28563324008214 9.75365045511673  3.28563324008214 9.75365045511673  C 3.28563324008214 9.75365045511673  8.65693220283231 1.73627870663061  8.65693220283231 1.73627870663061  C 8.88821072911168 1.39093990412081  8.90653402071171 0.950206218817839  8.7046657445972 0.587944928971322  C 8.50279746848269 0.225683639124805  8.11307404257627 0  7.68932002337023 0  C 7.68932002337023 0  1.36041783491719 0  1.36041783491719 0  C 0.722477102615993 0  0.205565024204323 0.502882755074837  0.205565024204323 1.12317477244163  C 0.205565024204323 1.74346678980843  0.722477102615993 2.24634954488327  1.36041783491719 2.24634954488327  C 1.36041783491719 2.24634954488327  5.55853757485288 2.24634954488327  5.55853757485288 2.24634954488327  C 5.55853757485288 2.24634954488327  0.187240851521493 10.2637212933694  0.187240851521493 10.2637212933694  C -0.0440376747578784 10.6090600958792  -0.0623609663579092 11.0497937811822  0.139507309756602 11.4120550710287  Z " fill-rule="nonzero" fill="#000000" stroke="none" transform="matrix(1 0 0 1 54 450 )" />
  </g>
</svg>