<?xml version="1.0" encoding="utf-8"?>
<svg version="1.1" xmlns:xlink="http://www.w3.org/1999/xlink" width="42px" height="29px" xmlns="http://www.w3.org/2000/svg">
  <g transform="matrix(1 0 0 1 -58 -477 )">
    <path d="M 42 10.8544513750452  L 42 20.0011815205076  L 28.59466439432 29  C 28.59466439432 29  0 15.9945437700413  0 15.9945437700413  C 0 11.7623887152386  0.511788978951565 8.42059651876009  1.10354309014069 5.97209719196634  C 1.86977012285525 2.80017750161193  4.549382284993 0.462974596996061  7.77858565438216 0.177413951058244  C 8.26420201733534 0.13494595982028  8.78035108262555 0.0968711984454624  9.32557904905421 0.0675829273469872  C 10.1514176505796 0.0236505196082012  11.0441384561477 -0.00270766888601354  11.9935621188604 0.000221158114726671  C 17.2510136342911 0.017794120119168  24.269189193986 0.911086892920061  31.6523026525689 4.32756365447514  C 35.0690645755218 5.90766585110622  38.5643369628972 8.02959753561975  42 10.8544513750452  Z " fill-rule="nonzero" fill="#9dc6fb" stroke="none" transform="matrix(1 0 0 1 58 477 )" />
  </g>
</svg>