<?xml version="1.0" encoding="utf-8"?>
<svg version="1.1" xmlns:xlink="http://www.w3.org/1999/xlink" width="14px" height="14px" xmlns="http://www.w3.org/2000/svg">
  <g transform="matrix(1 0 0 1 -67 -347 )">
    <path d="M 13.355201846324 5.95655670738879  C 13.355201846324 5.95655670738879  1.68846842207324 0.123190108264509  1.68846842207324 0.123190108264509  C 1.5105992193535 0.034246458122729  1.31294698027234 -0.00775373557640058  1.11427976514046 0.00117726929002366  C 0.915612550008583 0.0101082741564479  0.722524634740647 0.069674890565246  0.553353614923181 0.174219596887507  C 0.384182595105715 0.278764303209768  0.244544495966332 0.424816528402968  0.147696704400596 0.598508583912694  C 0.0508489128348608 0.77220063942242  0 0.967765556603279  0 1.1666334269529  C 0 1.1666334269529  0 12.8333667121254  0 12.8333667121254  C 0 13.032234582475  0.0508489128348608 13.2277994996559  0.147696704400596 13.4014915551656  C 0.244544495966332 13.5751836106753  0.384182595105715 13.721235801099  0.553353614923181 13.8257805074212  C 0.722524634740647 13.9303252137435  0.915612550008583 13.9898918363999  1.11427976514046 13.9988228412664  C 1.31294698027234 14.0077538461328  1.5105992193535 13.9657536548784  1.68846842207324 13.8768100047366  C 1.68846842207324 13.8768100047366  13.355201846324 8.04344329261121  13.355201846324 8.04344329261121  C 13.5489610751627 7.94653541921975  13.7119091494349 7.79759084346221  13.825793858938 7.61329747497385  C 13.9396785684412 7.4290041064855  14 7.21664204235689  14 7  C 14 6.78335795764311  13.9396785684412 6.5709958935145  13.825793858938 6.38670252502615  C 13.7119091494349 6.20240915653779  13.5489610751627 6.05346458078025  13.355201846324 5.95655670738879  Z M 10.2245782351202 7  L 2.33334668485016 10.9456892084776  L 2.33334668485016 3.05431079152242  L 10.2245782351202 7  Z " fill-rule="nonzero" fill="#000000" stroke="none" transform="matrix(1 0 0 1 67 347 )" />
  </g>
</svg>