<?xml version="1.0" encoding="utf-8"?>
<svg version="1.1" xmlns:xlink="http://www.w3.org/1999/xlink" width="71px" height="61px" xmlns="http://www.w3.org/2000/svg">
  <g transform="matrix(1 0 0 1 -38 -335 )">
    <path d="M 70.6534105936686 40.2282007657565  C 70.4314925514162 40.008206173491  70.1305061911543 39.8846153846154  69.8166666666667 39.8846153846154  C 69.8166666666667 39.8846153846154  49.8922898610433 39.8846153846154  49.8922898610433 39.8846153846154  L 42.7922898610433 37.5384615384615  C 42.7922898610433 37.5384615384615  62.7166666666667 37.5384615384615  62.7166666666667 37.5384615384615  C 63.0305061911543 37.5384615384615  63.3314925514162 37.4148707495859  63.5534105936686 37.1948761573205  C 63.7753286359211 36.974881565055  63.9 36.6765039706459  63.9 36.3653846153846  C 63.9 36.3653846153846  63.9 1.17307692307692  63.9 1.17307692307692  C 63.9 0.861957567815597  63.7753286359211 0.563581092139849  63.5534105936686 0.343586499874408  C 63.3314925514162 0.123591907608968  63.0305061911543 0  62.7166666666667 0  C 62.7166666666667 0  8.28333333333333 0  8.28333333333333 0  C 7.96949380884568 0  7.66850857709845 0.123591907608968  7.44659053484599 0.343586499874408  C 7.22467249259353 0.563581092139849  7.1 0.861957567815597  7.1 1.17307692307692  C 7.1 1.17307692307692  7.1 36.3653846153846  7.1 36.3653846153846  C 7.1 36.6765039706459  7.22467249259353 36.974881565055  7.44659053484599 37.1948761573205  C 7.66850857709845 37.4148707495859  7.96949380884568 37.5384615384615  8.28333333333333 37.5384615384615  C 8.28333333333333 37.5384615384615  28.2077078819275 37.5384615384615  28.2077078819275 37.5384615384615  L 21.1077078819275 39.8846153846154  C 21.1077078819275 39.8846153846154  1.18333333333333 39.8846153846154  1.18333333333333 39.8846153846154  C 0.869493808845679 39.8846153846154  0.568508294969797 40.008206173491  0.346590252717336 40.2282007657565  C 0.124672210464875 40.4481953580219  0 40.746572952431  0 41.0576923076923  C 0 41.0576923076923  0 59.8269230769231  0 59.8269230769231  C 0 60.1380424321844  0.124672210464875 60.4364200265935  0.346590252717336 60.6564146188589  C 0.568508294969797 60.8764092111244  0.869493808845679 61  1.18333333333333 61  C 1.18333333333333 61  69.8166666666667 61  69.8166666666667 61  C 70.1305061911543 61  70.4314925514162 60.8764092111244  70.6534105936686 60.6564146188589  C 70.8753286359211 60.4364200265935  71 60.1380424321844  71 59.8269230769231  C 71 59.8269230769231  71 41.0576923076923  71 41.0576923076923  C 71 40.746572952431  70.8753286359211 40.4481953580219  70.6534105936686 40.2282007657565  Z M 10 35  L 10 3  L 61 3  L 61 35  L 10 35  Z M 16.5666666666667 58  L 16.5666666666667 51  L 34.3166666666667 51  L 34.3166666666667 58  L 16.5666666666667 58  Z M 36.6833333333333 58  L 36.6833333333333 51  L 54.4333333333333 51  L 54.4333333333333 58  L 36.6833333333333 58  Z M 54.4333333333333 42  L 54.4333333333333 49  L 16.5666666666667 49  L 16.5666666666667 42  L 54.4333333333333 42  Z M 28.5922921180725 39  L 35.5 37.6019563674927  L 42.4077101389567 39  L 28.5922921180725 39  Z M 3 58  L 3 42  L 15 42  L 15 58  L 3 58  Z M 68 42  L 68 58  L 56 58  L 56 42  L 68 42  Z " fill-rule="nonzero" fill="#000000" stroke="none" transform="matrix(1 0 0 1 38 335 )" />
  </g>
</svg>