<?xml version="1.0" encoding="utf-8"?>
<svg version="1.1" xmlns:xlink="http://www.w3.org/1999/xlink" width="6px" height="32px" xmlns="http://www.w3.org/2000/svg">
  <g transform="matrix(1 0 0 1 -101 -486 )">
    <path d="M 6 31.9865914757944  C 5.90776573319512 31.995530855476  5.81235116694518 32  5.71693640164454 32  C 5.71693640164454 32  2.87039698722921 32  2.87039698722921 32  C 1.28492165768718 32  0 30.7961653678201  0 29.3107383710877  C 0 29.3107383710877  0 2.68926162891233  0 2.68926162891233  C 0 1.20383463217992  1.28492165768718 0  2.87039698722921 0  C 2.87039698722921 0  5.71693640164454 0  5.71693640164454 0  C 5.81235116694518 0  5.90776573319512 0.00446914452402851  6 0.0134085242055491  C 4.54810536083608 0.146009323647315  3.41425841012604 1.29322848782828  3.41425841012604 2.68926162891233  C 3.41425841012604 2.68926162891233  3.41425841012604 29.3107383710877  3.41425841012604 29.3107383710877  C 3.41409938551597 30.7067715121717  4.54810536083608 31.8539906763527  6 31.9865914757944  Z " fill-rule="nonzero" fill="#8b5e5e" stroke="none" transform="matrix(1 0 0 1 101 486 )" />
  </g>
</svg>