<?xml version="1.0" encoding="utf-8"?>
<svg version="1.1" xmlns:xlink="http://www.w3.org/1999/xlink" width="7px" height="48px" xmlns="http://www.w3.org/2000/svg">
  <g transform="matrix(1 0 0 1 -36 -470 )">
    <path d="M 7 45.3198931984335  C 7 46.8000466185326  5.95259881769601 48  4.6606180943946 48  C 4.6606180943946 48  2.3393819056054 48  2.3393819056054 48  C 1.04740118230399 48  0 46.8000466185326  0 45.3198931984335  C 0 45.3198931984335  0 2.68010453578119  0 2.68010453578119  C 0 1.19995111568212  1.04740118230399 0  2.3393819056054 0  C 2.3393819056054 0  4.6606180943946 0  4.6606180943946 0  C 5.95259881769601 0  7 1.19995111568212  7 2.68010453578119  C 7 2.68010453578119  7 45.3198931984335  7 45.3198931984335  Z " fill-rule="nonzero" fill="#9d6b6b" stroke="none" transform="matrix(1 0 0 1 36 470 )" />
  </g>
</svg>