<?xml version="1.0" encoding="utf-8"?>
<svg version="1.1" xmlns:xlink="http://www.w3.org/1999/xlink" width="7px" height="9px" xmlns="http://www.w3.org/2000/svg">
  <g transform="matrix(1 0 0 1 -61 -463 )">
    <path d="M 0.143718231626662 1.12133598326694  C 0.143718231626662 1.74061312857818  0.66417175295774 2.24267310721699  1.30648311381216 2.24267310721699  C 1.30648311381216 2.24267310721699  3.58302282752104 2.24267310721699  3.58302282752104 2.24267310721699  C 3.58302282752104 2.24267310721699  0.188523666947053 7.26656319403438  0.188523666947053 7.26656319403438  C -0.0443393835357768 7.61118748010934  -0.0627882107810502 8.05134957308034  0.140463095459774 8.41301816005533  C 0.343714401700599 8.77468674703033  0.73610791877266 9  1.16276514092861 9  C 1.16276514092861 9  5.8372350808512 9  5.8372350808512 9  C 6.47954644170562 9  7 8.49794002136119  7 7.87866287604995  C 7 7.25938573073871  6.47954644170562 6.7573257520999  5.8372350808512 6.7573257520999  C 5.8372350808512 6.7573257520999  3.30829974390135 6.7573257520999  3.30829974390135 6.7573257520999  C 3.30829974390135 6.7573257520999  6.70279849787902 1.73343794664873  6.70279849787902 1.73343794664873  C 6.93566154836185 1.38881366057377  6.95411037560713 0.948651567602775  6.7508590693663 0.586982980627779  C 6.54760776312548 0.225314393652783  6.15521191736544 0  5.72855469520949 0  C 5.72855469520949 0  1.30663924679691 0  1.30663924679691 0  C 0.664327885942489 0  0.143718231626662 0.502058837955698  0.143718231626662 1.12133598326694  Z " fill-rule="nonzero" fill="#000000" stroke="none" transform="matrix(1 0 0 1 61 463 )" />
  </g>
</svg>