<?xml version="1.0" encoding="utf-8"?>
<svg version="1.1" xmlns:xlink="http://www.w3.org/1999/xlink" width="7px" height="32px" xmlns="http://www.w3.org/2000/svg">
  <g transform="matrix(1 0 0 1 -101 -486 )">
    <path d="M 7 29.3108964777213  C 7 30.7960185531456  5.95259711245007 32  4.66061611537768 32  C 4.66061611537768 32  2.33937992915187 32  2.33937992915187 32  C 1.04739893207949 32  0 30.7960185531456  0 29.3108964777213  C 0 29.3108964777213  0 2.68909897549625  0 2.68909897549625  C 0 1.20397690007195  1.04739893207949 0  2.33937992915187 0  C 2.33937992915187 0  4.66061611537768 0  4.66061611537768 0  C 5.95259711245007 0  7 1.20397690007195  7 2.68909897549625  C 7 2.68909897549625  7 29.3108964777213  7 29.3108964777213  Z " fill-rule="nonzero" fill="#9d6b6b" stroke="none" transform="matrix(1 0 0 1 101 486 )" />
  </g>
</svg>